<?xml version="1.0" encoding="UTF-8"?>
<svg width="800" height="600" viewBox="0 0 800 600" fill="none" xmlns="http://www.w3.org/2000/svg">
  <!-- Background Elements -->
  <rect width="800" height="600" fill="white"/>
  <circle cx="400" cy="300" r="250" fill="url(#paint0_radial)" fill-opacity="0.05"/>
  
  <!-- Office Building -->
  <rect x="150" y="150" width="500" height="350" rx="10" fill="#F5F7FA" stroke="#E1E5EB" stroke-width="2"/>
  <rect x="200" y="200" width="100" height="100" rx="5" fill="#E1E5EB"/>
  <rect x="350" y="200" width="100" height="100" rx="5" fill="#E1E5EB"/>
  <rect x="500" y="200" width="100" height="100" rx="5" fill="#E1E5EB"/>
  <rect x="200" y="350" width="100" height="100" rx="5" fill="#E1E5EB"/>
  <rect x="350" y="350" width="100" height="100" rx="5" fill="#E1E5EB"/>
  <rect x="500" y="350" width="100" height="100" rx="5" fill="#E1E5EB"/>
  
  <!-- People Icons -->
  <circle cx="250" cy="230" r="20" fill="#6377EE"/>
  <path d="M250 260C236.193 260 225 271.193 225 285V300H275V285C275 271.193 263.807 260 250 260Z" fill="#6377EE"/>
  
  <circle cx="400" cy="230" r="20" fill="#00DFD8"/>
  <path d="M400 260C386.193 260 375 271.193 375 285V300H425V285C425 271.193 413.807 260 400 260Z" fill="#00DFD8"/>
  
  <circle cx="550" cy="230" r="20" fill="#6377EE"/>
  <path d="M550 260C536.193 260 525 271.193 525 285V300H575V285C575 271.193 563.807 260 550 260Z" fill="#6377EE"/>
  
  <circle cx="250" cy="380" r="20" fill="#00DFD8"/>
  <path d="M250 410C236.193 410 225 421.193 225 435V450H275V435C275 421.193 263.807 410 250 410Z" fill="#00DFD8"/>
  
  <circle cx="400" cy="380" r="20" fill="#6377EE"/>
  <path d="M400 410C386.193 410 375 421.193 375 435V450H425V435C425 421.193 413.807 410 400 410Z" fill="#6377EE"/>
  
  <circle cx="550" cy="380" r="20" fill="#00DFD8"/>
  <path d="M550 410C536.193 410 525 421.193 525 435V450H575V435C575 421.193 563.807 410 550 410Z" fill="#00DFD8"/>
  
  <!-- Connection Lines -->
  <line x1="275" y1="250" x2="375" y2="250" stroke="#6377EE" stroke-width="2" stroke-opacity="0.5" stroke-dasharray="5 5"/>
  <line x1="425" y1="250" x2="525" y2="250" stroke="#6377EE" stroke-width="2" stroke-opacity="0.5" stroke-dasharray="5 5"/>
  <line x1="275" y1="400" x2="375" y2="400" stroke="#6377EE" stroke-width="2" stroke-opacity="0.5" stroke-dasharray="5 5"/>
  <line x1="425" y1="400" x2="525" y2="400" stroke="#6377EE" stroke-width="2" stroke-opacity="0.5" stroke-dasharray="5 5"/>
  <line x1="250" y1="300" x2="250" y2="360" stroke="#6377EE" stroke-width="2" stroke-opacity="0.5" stroke-dasharray="5 5"/>
  <line x1="400" y1="300" x2="400" y2="360" stroke="#6377EE" stroke-width="2" stroke-opacity="0.5" stroke-dasharray="5 5"/>
  <line x1="550" y1="300" x2="550" y2="360" stroke="#6377EE" stroke-width="2" stroke-opacity="0.5" stroke-dasharray="5 5"/>
  
  <!-- Decorative Elements -->
  <circle cx="150" cy="150" r="30" fill="#6377EE" fill-opacity="0.1"/>
  <circle cx="650" cy="150" r="30" fill="#00DFD8" fill-opacity="0.1"/>
  <circle cx="150" cy="450" r="30" fill="#00DFD8" fill-opacity="0.1"/>
  <circle cx="650" cy="450" r="30" fill="#6377EE" fill-opacity="0.1"/>
  
  <!-- Gradient Definitions -->
  <defs>
    <radialGradient id="paint0_radial" cx="0" cy="0" r="1" gradientUnits="userSpaceOnUse" gradientTransform="translate(400 300) rotate(90) scale(250)">
      <stop stop-color="#6377EE"/>
      <stop offset="1" stop-color="#6377EE" stop-opacity="0"/>
    </radialGradient>
  </defs>
</svg>