<?xml version="1.0" encoding="UTF-8"?>
<svg width="120" height="120" viewBox="0 0 120 120" fill="none" xmlns="http://www.w3.org/2000/svg">
  <circle cx="60" cy="60" r="60" fill="url(#paint0_linear)"/>
  <path d="M84 48C84 51.3137 81.3137 54 78 54C74.6863 54 72 51.3137 72 48C72 44.6863 74.6863 42 78 42C81.3137 42 84 44.6863 84 48Z" fill="white"/>
  <path d="M60 36C60 39.3137 57.3137 42 54 42C50.6863 42 48 39.3137 48 36C48 32.6863 50.6863 30 54 30C57.3137 30 60 32.6863 60 36Z" fill="white"/>
  <path d="M48 72C48 75.3137 45.3137 78 42 78C38.6863 78 36 75.3137 36 72C36 68.6863 38.6863 66 42 66C45.3137 66 48 68.6863 48 72Z" fill="white"/>
  <path d="M72 84C72 87.3137 69.3137 90 66 90C62.6863 90 60 87.3137 60 84C60 80.6863 62.6863 78 66 78C69.3137 78 72 80.6863 72 84Z" fill="white"/>
  <path d="M78 54L66 78M54 42L42 66M54 42L78 48M42 72L66 84" stroke="white" stroke-width="3"/>
  <defs>
    <linearGradient id="paint0_linear" x1="0" y1="0" x2="120" y2="120" gradientUnits="userSpaceOnUse">
      <stop stop-color="#6377EE"/>
      <stop offset="1" stop-color="#00DFD8"/>
    </linearGradient>
  </defs>
</svg>