<?xml version="1.0" encoding="UTF-8"?>
<svg width="800" height="600" viewBox="0 0 800 600" fill="none" xmlns="http://www.w3.org/2000/svg">
  <!-- Background Elements -->
  <circle cx="400" cy="300" r="250" fill="url(#paint0_radial)" fill-opacity="0.1"/>
  <circle cx="400" cy="300" r="200" fill="url(#paint1_radial)" fill-opacity="0.1"/>
  <circle cx="400" cy="300" r="150" fill="url(#paint2_radial)" fill-opacity="0.1"/>
  
  <!-- Data Points -->
  <circle cx="300" cy="200" r="15" fill="#6377EE"/>
  <circle cx="350" cy="150" r="10" fill="#00DFD8"/>
  <circle cx="450" cy="180" r="12" fill="#6377EE"/>
  <circle cx="500" cy="250" r="8" fill="#00DFD8"/>
  <circle cx="480" cy="350" r="14" fill="#6377EE"/>
  <circle cx="400" cy="400" r="10" fill="#00DFD8"/>
  <circle cx="320" cy="380" r="12" fill="#6377EE"/>
  <circle cx="250" cy="300" r="9" fill="#00DFD8"/>
  
  <!-- Connection Lines -->
  <line x1="300" y1="200" x2="350" y2="150" stroke="#6377EE" stroke-width="2" stroke-opacity="0.6"/>
  <line x1="350" y1="150" x2="450" y2="180" stroke="#6377EE" stroke-width="2" stroke-opacity="0.6"/>
  <line x1="450" y1="180" x2="500" y2="250" stroke="#6377EE" stroke-width="2" stroke-opacity="0.6"/>
  <line x1="500" y1="250" x2="480" y2="350" stroke="#6377EE" stroke-width="2" stroke-opacity="0.6"/>
  <line x1="480" y1="350" x2="400" y2="400" stroke="#6377EE" stroke-width="2" stroke-opacity="0.6"/>
  <line x1="400" y1="400" x2="320" y2="380" stroke="#6377EE" stroke-width="2" stroke-opacity="0.6"/>
  <line x1="320" y1="380" x2="250" y2="300" stroke="#6377EE" stroke-width="2" stroke-opacity="0.6"/>
  <line x1="250" y1="300" x2="300" y2="200" stroke="#6377EE" stroke-width="2" stroke-opacity="0.6"/>
  
  <!-- Data Visualization Elements -->
  <rect x="150" y="450" width="40" height="100" rx="5" fill="url(#paint3_linear)"/>
  <rect x="220" y="420" width="40" height="130" rx="5" fill="url(#paint4_linear)"/>
  <rect x="290" y="400" width="40" height="150" rx="5" fill="url(#paint5_linear)"/>
  <rect x="360" y="380" width="40" height="170" rx="5" fill="url(#paint6_linear)"/>
  <rect x="430" y="350" width="40" height="200" rx="5" fill="url(#paint7_linear)"/>
  <rect x="500" y="380" width="40" height="170" rx="5" fill="url(#paint8_linear)"/>
  <rect x="570" y="420" width="40" height="130" rx="5" fill="url(#paint9_linear)"/>
  <rect x="640" y="450" width="40" height="100" rx="5" fill="url(#paint10_linear)"/>
  
  <!-- Decorative Elements -->
  <path d="M150 250C150 250 200 200 250 200C300 200 350 300 400 300C450 300 500 200 550 200C600 200 650 250 650 250" stroke="#00DFD8" stroke-width="3" stroke-linecap="round" stroke-opacity="0.7"/>
  
  <path d="M200 150C200 150 250 100 300 100C350 100 400 200 450 200C500 200 550 100 600 100C650 100 700 150 700 150" stroke="#6377EE" stroke-width="3" stroke-linecap="round" stroke-opacity="0.7"/>
  
  <!-- Gradient Definitions -->
  <defs>
    <radialGradient id="paint0_radial" cx="0" cy="0" r="1" gradientUnits="userSpaceOnUse" gradientTransform="translate(400 300) rotate(90) scale(250)">
      <stop stop-color="#6377EE"/>
      <stop offset="1" stop-color="#6377EE" stop-opacity="0"/>
    </radialGradient>
    <radialGradient id="paint1_radial" cx="0" cy="0" r="1" gradientUnits="userSpaceOnUse" gradientTransform="translate(400 300) rotate(90) scale(200)">
      <stop stop-color="#00DFD8"/>
      <stop offset="1" stop-color="#00DFD8" stop-opacity="0"/>
    </radialGradient>
    <radialGradient id="paint2_radial" cx="0" cy="0" r="1" gradientUnits="userSpaceOnUse" gradientTransform="translate(400 300) rotate(90) scale(150)">
      <stop stop-color="#6377EE"/>
      <stop offset="1" stop-color="#6377EE" stop-opacity="0"/>
    </radialGradient>
    <linearGradient id="paint3_linear" x1="170" y1="450" x2="170" y2="550" gradientUnits="userSpaceOnUse">
      <stop stop-color="#6377EE"/>
      <stop offset="1" stop-color="#00DFD8"/>
    </linearGradient>
    <linearGradient id="paint4_linear" x1="240" y1="420" x2="240" y2="550" gradientUnits="userSpaceOnUse">
      <stop stop-color="#6377EE"/>
      <stop offset="1" stop-color="#00DFD8"/>
    </linearGradient>
    <linearGradient id="paint5_linear" x1="310" y1="400" x2="310" y2="550" gradientUnits="userSpaceOnUse">
      <stop stop-color="#6377EE"/>
      <stop offset="1" stop-color="#00DFD8"/>
    </linearGradient>
    <linearGradient id="paint6_linear" x1="380" y1="380" x2="380" y2="550" gradientUnits="userSpaceOnUse">
      <stop stop-color="#6377EE"/>
      <stop offset="1" stop-color="#00DFD8"/>
    </linearGradient>
    <linearGradient id="paint7_linear" x1="450" y1="350" x2="450" y2="550" gradientUnits="userSpaceOnUse">
      <stop stop-color="#6377EE"/>
      <stop offset="1" stop-color="#00DFD8"/>
    </linearGradient>
    <linearGradient id="paint8_linear" x1="520" y1="380" x2="520" y2="550" gradientUnits="userSpaceOnUse">
      <stop stop-color="#6377EE"/>
      <stop offset="1" stop-color="#00DFD8"/>
    </linearGradient>
    <linearGradient id="paint9_linear" x1="590" y1="420" x2="590" y2="550" gradientUnits="userSpaceOnUse">
      <stop stop-color="#6377EE"/>
      <stop offset="1" stop-color="#00DFD8"/>
    </linearGradient>
    <linearGradient id="paint10_linear" x1="660" y1="450" x2="660" y2="550" gradientUnits="userSpaceOnUse">
      <stop stop-color="#6377EE"/>
      <stop offset="1" stop-color="#00DFD8"/>
    </linearGradient>
  </defs>
</svg>