<?xml version="1.0" encoding="UTF-8"?>
<svg xmlns="http://www.w3.org/2000/svg" viewBox="0 0 800 600" width="100%" height="100%" preserveAspectRatio="xMidYMid meet">
  <!-- Background with gradient -->
  <defs>
    <linearGradient id="bg-gradient" x1="0%" y1="0%" x2="100%" y2="100%">
      <stop offset="0%" stop-color="#f8f9fa" />
      <stop offset="100%" stop-color="#e9ecef" />
    </linearGradient>
    
    <!-- Animation for the chart bars -->
    <style type="text/css">
      @keyframes grow-up {
        from { height: 0; }
        to { height: 100%; }
      }
      
      @keyframes fade-in {
        from { opacity: 0; }
        to { opacity: 1; }
      }
      
      @keyframes draw-line {
        from { stroke-dashoffset: 1000; }
        to { stroke-dashoffset: 0; }
      }
      
      @keyframes rotate {
        from { transform: rotate(0deg); }
        to { transform: rotate(360deg); }
      }
      
      .chart-bar {
        animation: grow-up 1.5s ease-out forwards;
      }
      
      .chart-line {
        stroke-dasharray: 1000;
        stroke-dashoffset: 1000;
        animation: draw-line 2s ease-out forwards;
      }
      
      .data-point {
        animation: fade-in 0.5s ease-out forwards;
      }
      
      .gear {
        transform-origin: center;
        animation: rotate 10s linear infinite;
      }
      
      .gear-reverse {
        transform-origin: center;
        animation: rotate 10s linear infinite reverse;
      }
      
      .arrow-up {
        animation: fade-in 1s ease-out forwards, float 3s ease-in-out infinite;
      }
      
      @keyframes float {
        0% { transform: translateY(0px); }
        50% { transform: translateY(-10px); }
        100% { transform: translateY(0px); }
      }
    </style>
  </defs>
  
  <!-- Background -->
  <rect width="800" height="600" fill="url(#bg-gradient)" rx="15" ry="15" />
  
  <!-- Business Growth Chart -->
  <g transform="translate(100, 450)">
    <!-- X and Y axis -->
    <line x1="0" y1="0" x2="600" y2="0" stroke="#495057" stroke-width="3" />
    <line x1="0" y1="0" x2="0" y2="-350" stroke="#495057" stroke-width="3" />
    
    <!-- Chart bars with animation -->
    <g>
      <rect x="50" y="-50" width="40" height="50" fill="#6c757d" class="chart-bar" style="animation-delay: 0.1s" />
      <rect x="150" y="-100" width="40" height="100" fill="#6c757d" class="chart-bar" style="animation-delay: 0.2s" />
      <rect x="250" y="-180" width="40" height="180" fill="#6c757d" class="chart-bar" style="animation-delay: 0.3s" />
      <rect x="350" y="-250" width="40" height="250" fill="#007bff" class="chart-bar" style="animation-delay: 0.4s" />
      <rect x="450" y="-320" width="40" height="320" fill="#007bff" class="chart-bar" style="animation-delay: 0.5s" />
    </g>
    
    <!-- Chart labels -->
    <g fill="#343a40" font-family="Arial" font-size="14">
      <text x="70" y="20" text-anchor="middle">Q1</text>
      <text x="170" y="20" text-anchor="middle">Q2</text>
      <text x="270" y="20" text-anchor="middle">Q3</text>
      <text x="370" y="20" text-anchor="middle">Q4</text>
      <text x="470" y="20" text-anchor="middle">Q5</text>
      
      <text x="-10" y="-50" text-anchor="end">50</text>
      <text x="-10" y="-100" text-anchor="end">100</text>
      <text x="-10" y="-150" text-anchor="end">150</text>
      <text x="-10" y="-200" text-anchor="end">200</text>
      <text x="-10" y="-250" text-anchor="end">250</text>
      <text x="-10" y="-300" text-anchor="end">300</text>
    </g>
    
    <!-- Growth line -->
    <path d="M70 -50 L170 -100 L270 -180 L370 -250 L470 -320" fill="none" stroke="#28a745" stroke-width="3" class="chart-line" />
    
    <!-- Data points -->
    <circle cx="70" cy="-50" r="6" fill="#28a745" class="data-point" style="animation-delay: 0.6s" />
    <circle cx="170" cy="-100" r="6" fill="#28a745" class="data-point" style="animation-delay: 0.8s" />
    <circle cx="270" cy="-180" r="6" fill="#28a745" class="data-point" style="animation-delay: 1s" />
    <circle cx="370" cy="-250" r="6" fill="#28a745" class="data-point" style="animation-delay: 1.2s" />
    <circle cx="470" cy="-320" r="6" fill="#28a745" class="data-point" style="animation-delay: 1.4s" />
  </g>
  
  <!-- Business elements -->
  <g transform="translate(650, 150)">
    <!-- Gears representing business processes -->
    <g>
      <path d="M0,0 L20,0 L25,10 L20,20 L0,20 L-5,10 Z M0,30 L20,30 L25,40 L20,50 L0,50 L-5,40 Z M0,60 L20,60 L25,70 L20,80 L0,80 L-5,70 Z" 
            fill="#6c757d" class="gear" />
      <path d="M50,15 L70,15 L75,25 L70,35 L50,35 L45,25 Z M50,45 L70,45 L75,55 L70,65 L50,65 L45,55 Z" 
            fill="#007bff" class="gear-reverse" />
    </g>
    
    <!-- Upward arrow indicating growth -->
    <g class="arrow-up" transform="translate(20, 100)">
      <path d="M15,50 L15,10 L0,10 L30,-10 L60,10 L45,10 L45,50 Z" fill="#28a745" />
    </g>
  </g>
  
  <!-- Data visualization elements -->
  <g transform="translate(150, 150)">
    <!-- Database icon -->
    <g>
      <path d="M0,0 C0,-15 100,-15 100,0 L100,30 C100,45 0,45 0,30 Z" fill="#007bff" opacity="0.8" />
      <path d="M0,30 C0,15 100,15 100,30 L100,60 C100,75 0,75 0,60 Z" fill="#007bff" opacity="0.6" />
      <path d="M0,60 C0,45 100,45 100,60 L100,90 C100,105 0,105 0,90 Z" fill="#007bff" opacity="0.4" />
    </g>
    
    <!-- Data flow lines -->
    <g>
      <path d="M120,45 C150,45 150,200 180,200" fill="none" stroke="#6c757d" stroke-width="2" stroke-dasharray="5,5" class="chart-line" style="animation-delay: 0.5s" />
      <path d="M120,45 C150,45 150,100 250,100" fill="none" stroke="#6c757d" stroke-width="2" stroke-dasharray="5,5" class="chart-line" style="animation-delay: 0.7s" />
      <path d="M120,45 C150,45 200,45 250,45" fill="none" stroke="#6c757d" stroke-width="2" stroke-dasharray="5,5" class="chart-line" style="animation-delay: 0.9s" />
    </g>
  </g>
  
  <!-- Title -->
  <text x="400" y="50" font-family="Arial" font-size="24" font-weight="bold" text-anchor="middle" fill="#343a40">Business Growth Through Data Solutions</text>
</svg>