<?xml version="1.0" encoding="UTF-8" standalone="no"?>
<svg width="240" height="60" viewBox="0 0 240 60" fill="none" xmlns="http://www.w3.org/2000/svg">
  <!-- Circles -->
  <circle cx="30" cy="30" r="28" stroke="#0057B8" stroke-width="4" fill="none"/>
  <circle cx="30" cy="30" r="20" stroke="#0057B8" stroke-width="4" fill="none"/>
  <circle cx="30" cy="30" r="10" fill="#0057B8"/>
  
  <!-- Text -->
  <path d="M77.8 24.1c3.5 0 6.2 1 8.1 2.9 1.9 1.9 2.9 4.6 2.9 8 0 3.3-1 6-2.9 8-2 1.9-4.6 2.9-8.1 2.9h-7.9V24.1h7.9zm-0.5 17.8c2.2 0 3.9-0.6 5-1.8 1.2-1.2 1.8-2.9 1.8-5.1 0-2.2-0.6-3.9-1.8-5.1-1.2-1.2-2.8-1.8-5-1.8h-2.8v13.8h2.8z" fill="#0057B8"/>
  <path d="M96.1 27.9c1-1.3 2.5-2 4.4-2v5h-1.3c-1.1 0-2 0.3-2.6 0.8-0.6 0.6-0.9 1.5-0.9 2.9v10.3h-4.6V26.2h4.6v1.7h0.4z" fill="#0057B8"/>
  <path d="M113 45.9c-2.3 0-4.3-0.8-5.8-2.4-1.5-1.6-2.3-3.7-2.3-6.3 0-2.6 0.8-4.7 2.3-6.3 1.6-1.6 3.5-2.4 5.8-2.4 2.3 0 4.2 0.8 5.8 2.4 1.5 1.6 2.3 3.7 2.3 6.3 0 2.6-0.8 4.7-2.3 6.3-1.5 1.6-3.5 2.4-5.8 2.4zm0-4c1.1 0 2-0.4 2.7-1.2 0.7-0.8 1-1.9 1-3.5 0-1.5-0.3-2.7-1-3.5-0.7-0.8-1.6-1.2-2.7-1.2-1.1 0-2 0.4-2.7 1.2-0.7 0.8-1 1.9-1 3.5 0 1.5 0.3 2.7 1 3.5 0.7 0.8 1.6 1.2 2.7 1.2z" fill="#0057B8"/>
  <path d="M134.8 45.9c-2.3 0-4.3-0.8-5.8-2.4-1.5-1.6-2.3-3.7-2.3-6.3 0-2.6 0.8-4.7 2.3-6.3 1.6-1.6 3.5-2.4 5.8-2.4 2.3 0 4.2 0.8 5.8 2.4 1.5 1.6 2.3 3.7 2.3 6.3 0 2.6-0.8 4.7-2.3 6.3-1.5 1.6-3.5 2.4-5.8 2.4zm0-4c1.1 0 2-0.4 2.7-1.2 0.7-0.8 1-1.9 1-3.5 0-1.5-0.3-2.7-1-3.5-0.7-0.8-1.6-1.2-2.7-1.2-1.1 0-2 0.4-2.7 1.2-0.7 0.8-1 1.9-1 3.5 0 1.5 0.3 2.7 1 3.5 0.7 0.8 1.6 1.2 2.7 1.2z" fill="#0057B8"/>
  <path d="M151.7 45.9c-1.7 0-3.2-0.5-4.5-1.4-1.3-0.9-2.2-2.1-2.7-3.6h4.7c0.5 1 1.4 1.5 2.8 1.5 0.7 0 1.3-0.1 1.7-0.4 0.4-0.3 0.6-0.7 0.6-1.1 0-0.5-0.2-0.8-0.7-1.1-0.5-0.3-1.3-0.5-2.3-0.7-1-0.2-1.9-0.5-2.8-0.7-0.8-0.3-1.6-0.7-2.2-1.4-0.6-0.7-0.9-1.6-0.9-2.8 0-1.6 0.6-2.9 1.8-3.8 1.2-1 2.8-1.5 4.7-1.5 1.8 0 3.3 0.5 4.5 1.4 1.2 1 1.9 2.2 2.2 3.8h-4.6c-0.4-1-1.2-1.5-2.4-1.5-0.6 0-1 0.1-1.4 0.4-0.4 0.2-0.5 0.6-0.5 1 0 0.4 0.2 0.8 0.7 1.1 0.5 0.3 1.2 0.5 2.2 0.7 1 0.2 2 0.5 2.8 0.8 0.9 0.3 1.6 0.7 2.2 1.4 0.6 0.7 0.9 1.5 0.9 2.6 0 1.6-0.6 2.9-1.9 3.9-1.2 0.9-2.9 1.4-4.9 1.4z" fill="#0057B8"/>
  <path d="M166.5 45.9c-1.7 0-3.2-0.5-4.5-1.4-1.3-0.9-2.2-2.1-2.7-3.6h4.7c0.5 1 1.4 1.5 2.8 1.5 0.7 0 1.3-0.1 1.7-0.4 0.4-0.3 0.6-0.7 0.6-1.1 0-0.5-0.2-0.8-0.7-1.1-0.5-0.3-1.3-0.5-2.3-0.7-1-0.2-1.9-0.5-2.8-0.7-0.8-0.3-1.6-0.7-2.2-1.4-0.6-0.7-0.9-1.6-0.9-2.8 0-1.6 0.6-2.9 1.8-3.8 1.2-1 2.8-1.5 4.7-1.5 1.8 0 3.3 0.5 4.5 1.4 1.2 1 1.9 2.2 2.2 3.8h-4.6c-0.4-1-1.2-1.5-2.4-1.5-0.6 0-1 0.1-1.4 0.4-0.4 0.2-0.5 0.6-0.5 1 0 0.4 0.2 0.8 0.7 1.1 0.5 0.3 1.2 0.5 2.2 0.7 1 0.2 2 0.5 2.8 0.8 0.9 0.3 1.6 0.7 2.2 1.4 0.6 0.7 0.9 1.5 0.9 2.6 0 1.6-0.6 2.9-1.9 3.9-1.2 0.9-2.9 1.4-4.9 1.4z" fill="#0057B8"/>
  
  <!-- Leads Text -->
  <path d="M186.3 24.1h4.6v21.8h-4.6V24.1z" fill="#0057B8"/>
  <path d="M203.4 45.9c-2.3 0-4.3-0.8-5.8-2.4-1.5-1.6-2.3-3.7-2.3-6.3 0-2.6 0.8-4.7 2.3-6.3 1.6-1.6 3.5-2.4 5.8-2.4 2.3 0 4.2 0.8 5.8 2.4 1.5 1.6 2.3 3.7 2.3 6.3 0 2.6-0.8 4.7-2.3 6.3-1.5 1.6-3.5 2.4-5.8 2.4zm0-4c1.1 0 2-0.4 2.7-1.2 0.7-0.8 1-1.9 1-3.5 0-1.5-0.3-2.7-1-3.5-0.7-0.8-1.6-1.2-2.7-1.2-1.1 0-2 0.4-2.7 1.2-0.7 0.8-1 1.9-1 3.5 0 1.5 0.3 2.7 1 3.5 0.7 0.8 1.6 1.2 2.7 1.2z" fill="#0057B8"/>
  <path d="M225.1 45.9c-1.5 0-2.9-0.4-4-1.1-1.1-0.7-2-1.7-2.6-3v3.6h-4.5V20.5h4.6v9.3c0.6-1.2 1.5-2.2 2.6-2.9 1.1-0.7 2.4-1.1 3.9-1.1 2.1 0 3.8 0.8 5.2 2.4 1.4 1.6 2.1 3.7 2.1 6.3 0 2.6-0.7 4.7-2.1 6.3-1.4 1.6-3.1 2.4-5.2 2.4zm-1.2-4.2c1.1 0 1.9-0.4 2.6-1.2 0.7-0.8 1-1.9 1-3.4 0-1.5-0.3-2.6-1-3.4-0.6-0.8-1.5-1.2-2.6-1.2-1.1 0-2 0.4-2.6 1.2-0.7 0.8-1 1.9-1 3.4 0 1.5 0.3 2.6 1 3.4 0.7 0.8 1.6 1.2 2.6 1.2z" fill="#0057B8"/>
  <path d="M239.9 20.5v25.4h-4.6V20.5h4.6z" fill="#0057B8"/>
</svg>