<?xml version="1.0" encoding="UTF-8" standalone="no"?>
<svg width="80" height="80" viewBox="0 0 80 80" fill="none" xmlns="http://www.w3.org/2000/svg">
  <defs>
    <linearGradient id="gradient1" x1="0%" y1="0%" x2="100%" y2="100%">
      <stop offset="0%" stop-color="#6377EE" />
      <stop offset="100%" stop-color="#5163D6" />
    </linearGradient>
    <linearGradient id="gradient2" x1="0%" y1="0%" x2="100%" y2="0%">
      <stop offset="0%" stop-color="#00DFD8" />
      <stop offset="100%" stop-color="#00BCB6" />
    </linearGradient>
    <filter id="shadow" x="-20%" y="-20%" width="140%" height="140%">
      <feDropShadow dx="0" dy="3" stdDeviation="3" flood-color="#6377EE" flood-opacity="0.3"/>
    </filter>
  </defs>
  
  <!-- Background Circle -->
  <circle cx="40" cy="40" r="36" fill="#E6EAFF" />
  
  <!-- CRM Dashboard -->
  <g filter="url(#shadow)">
    <!-- Dashboard Base -->
    <rect x="16" y="20" width="48" height="40" rx="4" fill="url(#gradient1)"/>
    
    <!-- Dashboard Header -->
    <rect x="16" y="20" width="48" height="8" rx="4" fill="#5163D6"/>
    
    <!-- Header Controls -->
    <circle cx="20" cy="24" r="1.5" fill="white" fill-opacity="0.7"/>
    <circle cx="24" cy="24" r="1.5" fill="white" fill-opacity="0.7"/>
    <circle cx="28" cy="24" r="1.5" fill="white" fill-opacity="0.7"/>
  </g>
  
  <!-- Dashboard Elements -->
  <!-- Left Panel -->
  <rect x="20" y="34" width="14" height="4" rx="2" fill="white" fill-opacity="0.3"/>
  <rect x="20" y="42" width="14" height="4" rx="2" fill="white" fill-opacity="0.3"/>
  <rect x="20" y="50" width="14" height="4" rx="2" fill="white" fill-opacity="0.3"/>
  
  <!-- Right Panel - CRM Data -->
  <rect x="40" y="32" width="20" height="24" rx="2" fill="white" fill-opacity="0.1"/>
  
  <!-- User Icons in CRM -->
  <circle cx="44" cy="36" r="2" fill="white" fill-opacity="0.7"/>
  <rect x="48" y="35" width="8" height="2" rx="1" fill="white" fill-opacity="0.5"/>
  
  <circle cx="44" cy="42" r="2" fill="white" fill-opacity="0.7"/>
  <rect x="48" y="41" width="8" height="2" rx="1" fill="white" fill-opacity="0.5"/>
  
  <circle cx="44" cy="48" r="2" fill="white" fill-opacity="0.7"/>
  <rect x="48" y="47" width="8" height="2" rx="1" fill="white" fill-opacity="0.5"/>
  
  <!-- Activity Graph -->
  <rect x="20" y="32" width="14" height="1" rx="0.5" fill="white" fill-opacity="0.7"/>
  <rect x="20" y="40" width="14" height="1" rx="0.5" fill="white" fill-opacity="0.7"/>
  <rect x="20" y="48" width="14" height="1" rx="0.5" fill="white" fill-opacity="0.7"/>
  
  <!-- Gears Icon -->
  <g filter="url(#shadow)">
    <circle cx="56" cy="24" r="8" fill="url(#gradient2)"/>
    <path d="M56 22V26M54 24H58" stroke="white" stroke-width="1.5" stroke-linecap="round"/>
    <circle cx="56" cy="24" r="3" stroke="white" stroke-width="1.5"/>
  </g>
</svg>