<?xml version="1.0" encoding="UTF-8" standalone="no"?>
<svg width="80" height="80" viewBox="0 0 80 80" fill="none" xmlns="http://www.w3.org/2000/svg">
  <defs>
    <linearGradient id="gradient1" x1="0%" y1="0%" x2="100%" y2="100%">
      <stop offset="0%" stop-color="#6377EE" />
      <stop offset="100%" stop-color="#5163D6" />
    </linearGradient>
    <linearGradient id="gradient2" x1="0%" y1="0%" x2="100%" y2="0%">
      <stop offset="0%" stop-color="#00DFD8" />
      <stop offset="100%" stop-color="#00BCB6" />
    </linearGradient>
    <filter id="shadow" x="-20%" y="-20%" width="140%" height="140%">
      <feDropShadow dx="0" dy="3" stdDeviation="3" flood-color="#6377EE" flood-opacity="0.3"/>
    </filter>
  </defs>
  
  <!-- Background Circle -->
  <circle cx="40" cy="40" r="36" fill="#E6EAFF" />
  
  <!-- Data Document Icon -->
  <g filter="url(#shadow)">
    <!-- Document Base -->
    <path d="M56 20H24C21.7909 20 20 21.7909 20 24V56C20 58.2091 21.7909 60 24 60H56C58.2091 60 60 58.2091 60 56V24C60 21.7909 58.2091 20 56 20Z" fill="url(#gradient1)"/>
    
    <!-- Document Corner Fold -->
    <path d="M48 20V28H56L48 20Z" fill="#5163D6"/>
  </g>
  
  <!-- Data Lines -->
  <rect x="26" y="34" width="28" height="2" rx="1" fill="white" fill-opacity="0.7"/>
  <rect x="26" y="40" width="28" height="2" rx="1" fill="white" fill-opacity="0.7"/>
  <rect x="26" y="46" width="28" height="2" rx="1" fill="white" fill-opacity="0.7"/>
  <rect x="26" y="52" width="28" height="2" rx="1" fill="white" fill-opacity="0.7"/>
  
  <!-- Cleaning Brush Icon -->
  <g filter="url(#shadow)">
    <path d="M52 36L36 52" stroke="white" stroke-width="3" stroke-linecap="round"/>
    <path d="M58 30L52 36" stroke="white" stroke-width="3" stroke-linecap="round"/>
    <path d="M58 30C58 30 61 25 55 22C49 19 45 27 45 27L58 30Z" fill="url(#gradient2)"/>
    
    <!-- Sparkles -->
    <circle cx="34" cy="54" r="2" fill="white"/>
    <circle cx="38" cy="50" r="1.5" fill="white"/>
    <circle cx="42" cy="46" r="1" fill="white"/>
    <circle cx="46" cy="42" r="1.5" fill="white"/>
    <circle cx="50" cy="38" r="1" fill="white"/>
  </g>
</svg>