<?xml version="1.0" encoding="UTF-8" standalone="no"?>
<svg width="80" height="80" viewBox="0 0 80 80" fill="none" xmlns="http://www.w3.org/2000/svg">
  <defs>
    <linearGradient id="gradient1" x1="0%" y1="0%" x2="100%" y2="100%">
      <stop offset="0%" stop-color="#6377EE" />
      <stop offset="100%" stop-color="#5163D6" />
    </linearGradient>
    <linearGradient id="gradient2" x1="0%" y1="0%" x2="100%" y2="0%">
      <stop offset="0%" stop-color="#00DFD8" />
      <stop offset="100%" stop-color="#00BCB6" />
    </linearGradient>
    <filter id="shadow" x="-20%" y="-20%" width="140%" height="140%">
      <feDropShadow dx="0" dy="3" stdDeviation="3" flood-color="#6377EE" flood-opacity="0.3"/>
    </filter>
  </defs>
  
  <!-- Background Circle -->
  <circle cx="40" cy="40" r="36" fill="#E6EAFF" />
  
  <!-- Web Browser Window -->
  <g filter="url(#shadow)">
    <!-- Browser Window -->
    <rect x="16" y="20" width="48" height="40" rx="4" fill="url(#gradient1)"/>
    
    <!-- Browser Toolbar -->
    <rect x="16" y="20" width="48" height="8" rx="4" fill="#5163D6"/>
    
    <!-- Browser Controls -->
    <circle cx="20" cy="24" r="1.5" fill="white" fill-opacity="0.7"/>
    <circle cx="24" cy="24" r="1.5" fill="white" fill-opacity="0.7"/>
    <circle cx="28" cy="24" r="1.5" fill="white" fill-opacity="0.7"/>
    
    <!-- Address Bar -->
    <rect x="32" y="22" width="28" height="4" rx="2" fill="white" fill-opacity="0.3"/>
  </g>
  
  <!-- Web Content Elements -->
  <rect x="20" y="34" width="18" height="2" rx="1" fill="white" fill-opacity="0.7"/>
  <rect x="20" y="38" width="14" height="2" rx="1" fill="white" fill-opacity="0.7"/>
  <rect x="20" y="42" width="16" height="2" rx="1" fill="white" fill-opacity="0.7"/>
  <rect x="20" y="46" width="12" height="2" rx="1" fill="white" fill-opacity="0.7"/>
  <rect x="20" y="50" width="16" height="2" rx="1" fill="white" fill-opacity="0.7"/>
  
  <!-- Spider/Web Elements -->
  <g filter="url(#shadow)">
    <!-- Spider Body -->
    <circle cx="54" cy="38" r="6" fill="url(#gradient2)"/>
    
    <!-- Spider Eyes -->
    <circle cx="52" cy="36" r="1" fill="white"/>
    <circle cx="56" cy="36" r="1" fill="white"/>
    
    <!-- Spider Legs -->
    <path d="M50 34L45 32" stroke="#00DFD8" stroke-width="1.5" stroke-linecap="round"/>
    <path d="M49 38L43 38" stroke="#00DFD8" stroke-width="1.5" stroke-linecap="round"/>
    <path d="M50 42L45 44" stroke="#00DFD8" stroke-width="1.5" stroke-linecap="round"/>
    
    <path d="M58 34L63 32" stroke="#00DFD8" stroke-width="1.5" stroke-linecap="round"/>
    <path d="M59 38L65 38" stroke="#00DFD8" stroke-width="1.5" stroke-linecap="round"/>
    <path d="M58 42L63 44" stroke="#00DFD8" stroke-width="1.5" stroke-linecap="round"/>
    
    <!-- Web Strings -->
    <path d="M54 44L54 54" stroke="#00DFD8" stroke-width="1.5" stroke-linecap="round"/>
    
    <!-- Data Flow Lines -->
    <path d="M40 38L48 38" stroke="white" stroke-width="1.5" stroke-linecap="round" stroke-dasharray="2 2"/>
    <path d="M40 46L48 46" stroke="white" stroke-width="1.5" stroke-linecap="round" stroke-dasharray="2 2"/>
  </g>
</svg>