<?xml version="1.0" encoding="UTF-8" standalone="no"?>
<svg width="80" height="80" viewBox="0 0 80 80" fill="none" xmlns="http://www.w3.org/2000/svg">
  <defs>
    <linearGradient id="gradient1" x1="0%" y1="0%" x2="100%" y2="100%">
      <stop offset="0%" stop-color="#6377EE" />
      <stop offset="100%" stop-color="#5163D6" />
    </linearGradient>
    <filter id="shadow" x="-20%" y="-20%" width="140%" height="140%">
      <feDropShadow dx="0" dy="3" stdDeviation="3" flood-color="#6377EE" flood-opacity="0.3"/>
    </filter>
  </defs>
  
  <!-- Background Circle -->
  <circle cx="40" cy="40" r="36" fill="#E6EAFF" />
  
  <!-- Database Icon -->
  <g filter="url(#shadow)">
    <!-- Database Top -->
    <path d="M40 16C27.85 16 18 20.47 18 26V30C18 35.52 27.85 40 40 40C52.15 40 62 35.52 62 30V26C62 20.47 52.15 16 40 16Z" fill="url(#gradient1)"/>
    
    <!-- Database Middle Sections -->
    <path d="M40 44C27.85 44 18 39.52 18 34V42C18 47.52 27.85 52 40 52C52.15 52 62 47.52 62 42V34C62 39.52 52.15 44 40 44Z" fill="url(#gradient1)"/>
    
    <!-- Database Bottom Section -->
    <path d="M40 56C27.85 56 18 51.52 18 46V54C18 59.52 27.85 64 40 64C52.15 64 62 59.52 62 54V46C62 51.52 52.15 56 40 56Z" fill="url(#gradient1)"/>
  </g>
  
  <!-- Mining Elements -->
  <circle cx="30" cy="32" r="2" fill="white" />
  <circle cx="50" cy="32" r="2" fill="white" />
  <circle cx="40" cy="28" r="2" fill="white" />
  
  <!-- Data Flow Lines -->
  <line x1="30" y1="32" x2="40" y2="28" stroke="white" stroke-width="1.5" />
  <line x1="40" y1="28" x2="50" y2="32" stroke="white" stroke-width="1.5" />
  
  <!-- Mining Pick Tools -->
  <path d="M24 20L28 16M52 20L56 16" stroke="white" stroke-width="2" stroke-linecap="round" />
</svg>