<?xml version="1.0" encoding="UTF-8" standalone="no"?>
<svg width="80" height="80" viewBox="0 0 80 80" fill="none" xmlns="http://www.w3.org/2000/svg">
  <defs>
    <linearGradient id="gradient1" x1="0%" y1="0%" x2="100%" y2="100%">
      <stop offset="0%" stop-color="#6377EE" />
      <stop offset="100%" stop-color="#5163D6" />
    </linearGradient>
    <linearGradient id="gradient2" x1="0%" y1="0%" x2="100%" y2="0%">
      <stop offset="0%" stop-color="#00DFD8" />
      <stop offset="100%" stop-color="#00BCB6" />
    </linearGradient>
    <filter id="shadow" x="-20%" y="-20%" width="140%" height="140%">
      <feDropShadow dx="0" dy="3" stdDeviation="3" flood-color="#6377EE" flood-opacity="0.3"/>
    </filter>
  </defs>
  
  <!-- Background Circle -->
  <circle cx="40" cy="40" r="36" fill="#E6EAFF" />
  
  <!-- Email Envelope Base -->
  <g filter="url(#shadow)">
    <rect x="18" y="24" width="44" height="32" rx="4" fill="url(#gradient1)"/>
    
    <!-- Envelope Flap (Open) -->
    <path d="M62 28L40 42L18 28" stroke="white" stroke-width="2" stroke-linecap="round" stroke-linejoin="round"/>
    
    <!-- Email Content Lines -->
    <rect x="27" y="38" width="26" height="2" rx="1" fill="white" fill-opacity="0.5"/>
    <rect x="27" y="43" width="20" height="2" rx="1" fill="white" fill-opacity="0.5"/>
    <rect x="27" y="48" width="16" height="2" rx="1" fill="white" fill-opacity="0.5"/>
  </g>
  
  <!-- List Elements -->
  <circle cx="58" cy="30" r="8" fill="url(#gradient2)" stroke="white" stroke-width="2"/>
  <text x="58" y="33" text-anchor="middle" font-family="Arial" font-weight="bold" font-size="10" fill="white">1</text>
  
  <circle cx="58" cy="50" r="8" fill="url(#gradient2)" stroke="white" stroke-width="2"/>
  <text x="58" y="53" text-anchor="middle" font-family="Arial" font-weight="bold" font-size="10" fill="white">2</text>
  
  <circle cx="18" cy="40" r="8" fill="url(#gradient2)" stroke="white" stroke-width="2"/>
  <text x="18" y="43" text-anchor="middle" font-family="Arial" font-weight="bold" font-size="10" fill="white">3</text>
  
  <!-- Connection Lines -->
  <path d="M18 48L18 60L40 60L40 48" stroke="white" stroke-width="2" stroke-linecap="round" stroke-linejoin="round" stroke-dasharray="2 2"/>
</svg>