<?xml version="1.0" encoding="UTF-8" standalone="no"?>
<svg width="240" height="60" viewBox="0 0 240 60" fill="none" xmlns="http://www.w3.org/2000/svg">
  <!-- Concentric Circles Logo -->
  <circle cx="30" cy="30" r="30" fill="#EAEEFF"/>
  <circle cx="30" cy="30" r="24" stroke="#6377EE" stroke-width="3"/>
  <circle cx="30" cy="30" r="16" stroke="#6377EE" stroke-width="3"/>
  <circle cx="30" cy="30" r="8" fill="#6377EE"/>
  
  <!-- Opera Leads Text as Path -->
  <path d="M85.5 33.5C82.7 33.5 80.4 32.5 78.6 30.5C76.8 28.5 75.9 26 75.9 23C75.9 20 76.8 17.5 78.6 15.5C80.4 13.5 82.7 12.5 85.5 12.5C88.3 12.5 90.6 13.5 92.4 15.5C94.2 17.5 95.1 20 95.1 23C95.1 26 94.2 28.5 92.4 30.5C90.6 32.5 88.3 33.5 85.5 33.5ZM85.5 29.5C86.9 29.5 88 28.9 88.8 27.7C89.6 26.5 90 24.9 90 23C90 21.1 89.6 19.5 88.8 18.3C88 17.1 86.9 16.5 85.5 16.5C84.1 16.5 83 17.1 82.2 18.3C81.4 19.5 81 21.1 81 23C81 24.9 81.4 26.5 82.2 27.7C83 28.9 84.1 29.5 85.5 29.5Z" fill="#6377EE"/>
  <path d="M107.4 33.5C105.2 33.5 103.4 32.8 102 31.4C100.6 30 99.9 28.1 99.9 25.7V13H105V25.2C105 26.4 105.3 27.3 105.9 28C106.5 28.7 107.3 29 108.3 29C109.3 29 110.1 28.7 110.7 28C111.3 27.3 111.6 26.4 111.6 25.2V13H116.7V25.7C116.7 28.1 116 30 114.6 31.4C113.2 32.8 111.4 33.5 109.2 33.5H107.4Z" fill="#6377EE"/>
  <path d="M129.3 33.5C126.9 33.5 124.9 32.8 123.3 31.4C121.7 30 120.9 28.1 120.9 25.7V13H126V25.2C126 26.4 126.3 27.3 126.9 28C127.5 28.7 128.3 29 129.3 29C130.3 29 131.1 28.7 131.7 28C132.3 27.3 132.6 26.4 132.6 25.2V13H137.7V25.7C137.7 28.1 137 30 135.6 31.4C134.2 32.8 132.4 33.5 130.2 33.5H129.3Z" fill="#6377EE"/>
  <path d="M147.9 33L141.3 13H146.7L150.9 27.5L155.1 13H160.5L153.9 33H147.9Z" fill="#6377EE"/>
  <path d="M172.8 33.5C170.4 33.5 168.4 32.8 166.8 31.4C165.2 30 164.4 28.1 164.4 25.7V13H169.5V25.2C169.5 26.4 169.8 27.3 170.4 28C171 28.7 171.8 29 172.8 29C173.8 29 174.6 28.7 175.2 28C175.8 27.3 176.1 26.4 176.1 25.2V13H181.2V25.7C181.2 28.1 180.5 30 179.1 31.4C177.7 32.8 175.9 33.5 173.7 33.5H172.8Z" fill="#6377EE"/>
  <path d="M194.1 33L187.5 13H192.9L197.1 27.5L201.3 13H206.7L200.1 33H194.1Z" fill="#6377EE"/>
</svg>