<?xml version="1.0" encoding="UTF-8" standalone="no"?>
<svg width="240" height="60" viewBox="0 0 240 60" fill="none" xmlns="http://www.w3.org/2000/svg">
  <!-- Modern Opera Leads Logo -->
  
  <!-- Logo Symbol - Stylized "O" with data wave -->
  <g id="logo-symbol">
    <!-- Main Circle -->
    <circle cx="30" cy="30" r="25" fill="#EAEEFF"/>
    
    <!-- Stylized "O" -->
    <path d="M30 10C18.954 10 10 18.954 10 30C10 41.046 18.954 50 30 50C41.046 50 50 41.046 50 30C50 18.954 41.046 10 30 10ZM30 45C21.716 45 15 38.284 15 30C15 21.716 21.716 15 30 15C38.284 15 45 21.716 45 30C45 38.284 38.284 45 30 45Z" fill="#6377EE"/>
    
    <!-- Data Wave -->
    <path d="M20 30C20 30 25 22 30 30C35 38 40 30 40 30" stroke="#00DFD8" stroke-width="3" stroke-linecap="round"/>
  </g>
  
  <!-- Opera Leads Text -->
  <g id="logo-text">
    <!-- Opera -->
    <path d="M75 35C72.2 35 70 33.8 68.5 31.4C67 29 66.25 26 66.25 22.5C66.25 19 67 16 68.5 13.6C70 11.2 72.2 10 75 10C77.8 10 80 11.2 81.5 13.6C83 16 83.75 19 83.75 22.5C83.75 26 83 29 81.5 31.4C80 33.8 77.8 35 75 35ZM75 30C76.2 30 77.1 29.2 77.7 27.6C78.3 26 78.6 24 78.6 22.5C78.6 21 78.3 19 77.7 17.4C77.1 15.8 76.2 15 75 15C73.8 15 72.9 15.8 72.3 17.4C71.7 19 71.4 21 71.4 22.5C71.4 24 71.7 26 72.3 27.6C72.9 29.2 73.8 30 75 30Z" fill="#6377EE"/>
    
    <!-- p -->
    <path d="M95 35C93 35 91.5 34.2 90.5 32.6C89.5 31 89 28.8 89 26V10H94V26C94 27.2 94.2 28.1 94.6 28.7C95 29.3 95.6 29.6 96.4 29.6C97.2 29.6 97.8 29.3 98.2 28.7C98.6 28.1 98.8 27.2 98.8 26V10H103.8V26C103.8 28.8 103.1 31 101.7 32.6C100.3 34.2 98.4 35 96 35H95Z" fill="#6377EE"/>
    
    <!-- e -->
    <path d="M116 35C113.6 35 111.7 34.2 110.3 32.6C108.9 31 108.2 28.8 108.2 26V19C108.2 16.2 108.9 14 110.3 12.4C111.7 10.8 113.6 10 116 10H117C119.4 10 121.3 10.8 122.7 12.4C124.1 14 124.8 16.2 124.8 19V21H113.2V26C113.2 27.2 113.4 28.1 113.8 28.7C114.2 29.3 114.8 29.6 115.6 29.6C116.4 29.6 117 29.3 117.4 28.7C117.8 28.1 118 27.2 118 26V24H124V26C124 28.8 123.3 31 121.9 32.6C120.5 34.2 118.6 35 116.2 35H116Z" fill="#6377EE"/>
    <path d="M113.2 17H119.8V19C119.8 20.2 119.6 21.1 119.2 21.7C118.8 22.3 118.2 22.6 117.4 22.6C116.6 22.6 116 22.3 115.6 21.7C115.2 21.1 115 20.2 115 19V17H113.2Z" fill="#6377EE"/>
    
    <!-- r -->
    <path d="M135 35C132.6 35 130.7 34.2 129.3 32.6C127.9 31 127.2 28.8 127.2 26V10H132.2V26C132.2 27.2 132.4 28.1 132.8 28.7C133.2 29.3 133.8 29.6 134.6 29.6C135.4 29.6 136 29.3 136.4 28.7C136.8 28.1 137 27.2 137 26V10H142V26C142 28.8 141.3 31 139.9 32.6C138.5 34.2 136.6 35 134.2 35H135Z" fill="#6377EE"/>
    
    <!-- a -->
    <path d="M153 35C150.6 35 148.7 34.2 147.3 32.6C145.9 31 145.2 28.8 145.2 26V19C145.2 16.2 145.9 14 147.3 12.4C148.7 10.8 150.6 10 153 10H154C156.4 10 158.3 10.8 159.7 12.4C161.1 14 161.8 16.2 161.8 19V26C161.8 28.8 161.1 31 159.7 32.6C158.3 34.2 156.4 35 154 35H153Z" fill="#6377EE"/>
    <path d="M153 29.6C153.8 29.6 154.4 29.3 154.8 28.7C155.2 28.1 155.4 27.2 155.4 26V19C155.4 17.8 155.2 16.9 154.8 16.3C154.4 15.7 153.8 15.4 153 15.4C152.2 15.4 151.6 15.7 151.2 16.3C150.8 16.9 150.6 17.8 150.6 19V26C150.6 27.2 150.8 28.1 151.2 28.7C151.6 29.3 152.2 29.6 153 29.6Z" fill="#6377EE"/>
    
    <!-- Leads -->
    <path d="M175 35H170V10H175V35Z" fill="#6377EE"/>
    
    <path d="M186 35C183.6 35 181.7 34.2 180.3 32.6C178.9 31 178.2 28.8 178.2 26V19C178.2 16.2 178.9 14 180.3 12.4C181.7 10.8 183.6 10 186 10H187C189.4 10 191.3 10.8 192.7 12.4C194.1 14 194.8 16.2 194.8 19V21H183.2V26C183.2 27.2 183.4 28.1 183.8 28.7C184.2 29.3 184.8 29.6 185.6 29.6C186.4 29.6 187 29.3 187.4 28.7C187.8 28.1 188 27.2 188 26V24H194V26C194 28.8 193.3 31 191.9 32.6C190.5 34.2 188.6 35 186.2 35H186Z" fill="#6377EE"/>
    <path d="M183.2 17H189.8V19C189.8 20.2 189.6 21.1 189.2 21.7C188.8 22.3 188.2 22.6 187.4 22.6C186.6 22.6 186 22.3 185.6 21.7C185.2 21.1 185 20.2 185 19V17H183.2Z" fill="#6377EE"/>
    
    <path d="M206 35C203.6 35 201.7 34.2 200.3 32.6C198.9 31 198.2 28.8 198.2 26V19C198.2 16.2 198.9 14 200.3 12.4C201.7 10.8 203.6 10 206 10H207C209.4 10 211.3 10.8 212.7 12.4C214.1 14 214.8 16.2 214.8 19V26C214.8 28.8 214.1 31 212.7 32.6C211.3 34.2 209.4 35 207 35H206Z" fill="#6377EE"/>
    <path d="M206 29.6C206.8 29.6 207.4 29.3 207.8 28.7C208.2 28.1 208.4 27.2 208.4 26V19C208.4 17.8 208.2 16.9 207.8 16.3C207.4 15.7 206.8 15.4 206 15.4C205.2 15.4 204.6 15.7 204.2 16.3C203.8 16.9 203.6 17.8 203.6 19V26C203.6 27.2 203.8 28.1 204.2 28.7C204.6 29.3 205.2 29.6 206 29.6Z" fill="#6377EE"/>
    
    <path d="M225 35C222.6 35 220.7 34.2 219.3 32.6C217.9 31 217.2 28.8 217.2 26V19C217.2 16.2 217.9 14 219.3 12.4C220.7 10.8 222.6 10 225 10H226C228.4 10 230.3 10.8 231.7 12.4C233.1 14 233.8 16.2 233.8 19V26C233.8 28.8 233.1 31 231.7 32.6C230.3 34.2 228.4 35 226 35H225Z" fill="#6377EE"/>
    <path d="M225 29.6C225.8 29.6 226.4 29.3 226.8 28.7C227.2 28.1 227.4 27.2 227.4 26V19C227.4 17.8 227.2 16.9 226.8 16.3C226.4 15.7 225.8 15.4 225 15.4C224.2 15.4 223.6 15.7 223.2 16.3C222.8 16.9 222.6 17.8 222.6 19V26C222.6 27.2 222.8 28.1 223.2 28.7C223.6 29.3 224.2 29.6 225 29.6Z" fill="#6377EE"/>
  </g>
</svg>