<?xml version="1.0" encoding="UTF-8" standalone="no"?>
<svg width="240" height="60" viewBox="0 0 240 60" fill="none" xmlns="http://www.w3.org/2000/svg">
  <!-- Modern Opera Leads Logo - Alternative Version -->
  
  <!-- Logo Symbol -->
  <g id="logo-symbol">
    <!-- Background Shape -->
    <rect x="10" y="15" width="40" height="30" rx="15" fill="#EAEEFF"/>
    
    <!-- Stylized "O" with data connection -->
    <path d="M30 15C23.373 15 18 20.373 18 27C18 33.627 23.373 39 30 39C36.627 39 42 33.627 42 27C42 20.373 36.627 15 30 15ZM30 35C25.582 35 22 31.418 22 27C22 22.582 25.582 19 30 19C34.418 19 38 22.582 38 27C38 31.418 34.418 35 30 35Z" fill="#6377EE"/>
    
    <!-- Data Connection Lines -->
    <path d="M30 19L30 35" stroke="#00DFD8" stroke-width="1.5" stroke-dasharray="2 2"/>
    <path d="M22 27L38 27" stroke="#00DFD8" stroke-width="1.5" stroke-dasharray="2 2"/>
    <path d="M24 21L36 33" stroke="#00DFD8" stroke-width="1.5" stroke-dasharray="2 2"/>
    <path d="M36 21L24 33" stroke="#00DFD8" stroke-width="1.5" stroke-dasharray="2 2"/>
    
    <!-- Center Point -->
    <circle cx="30" cy="27" r="4" fill="#6377EE"/>
  </g>
  
  <!-- Opera Leads Text -->
  <g id="logo-text">
    <!-- Opera -->
    <path d="M70 37C66.7 37 64.1 35.7 62.3 33.1C60.5 30.5 59.6 27.1 59.6 23C59.6 18.9 60.5 15.5 62.3 12.9C64.1 10.3 66.7 9 70 9C73.3 9 75.9 10.3 77.7 12.9C79.5 15.5 80.4 18.9 80.4 23C80.4 27.1 79.5 30.5 77.7 33.1C75.9 35.7 73.3 37 70 37ZM70 32C71.4 32 72.5 31.1 73.3 29.3C74.1 27.5 74.5 25.5 74.5 23C74.5 20.5 74.1 18.5 73.3 16.7C72.5 14.9 71.4 14 70 14C68.6 14 67.5 14.9 66.7 16.7C65.9 18.5 65.5 20.5 65.5 23C65.5 25.5 65.9 27.5 66.7 29.3C67.5 31.1 68.6 32 70 32Z" fill="#6377EE"/>
    
    <!-- p -->
    <path d="M92 37C89.8 37 88.1 36.1 86.9 34.3C85.7 32.5 85.1 30 85.1 26.8V9H91V26.8C91 28.2 91.3 29.3 91.9 30.1C92.5 30.9 93.3 31.3 94.3 31.3C95.3 31.3 96.1 30.9 96.7 30.1C97.3 29.3 97.6 28.2 97.6 26.8V9H103.5V26.8C103.5 30 102.9 32.5 101.7 34.3C100.5 36.1 98.8 37 96.6 37H92Z" fill="#6377EE"/>
    
    <!-- e -->
    <path d="M115 37C112.2 37 110 36.1 108.4 34.3C106.8 32.5 106 30 106 26.8V19.2C106 16 106.8 13.5 108.4 11.7C110 9.9 112.2 9 115 9H116C118.8 9 121 9.9 122.6 11.7C124.2 13.5 125 16 125 19.2V22H112V26.8C112 28.2 112.3 29.3 112.9 30.1C113.5 30.9 114.3 31.3 115.3 31.3C116.3 31.3 117.1 30.9 117.7 30.1C118.3 29.3 118.6 28.2 118.6 26.8V24H124.5V26.8C124.5 30 123.7 32.5 122.1 34.3C120.5 36.1 118.3 37 115.5 37H115Z" fill="#6377EE"/>
    <path d="M112 16H119V19.2C119 20.6 118.7 21.7 118.1 22.5C117.5 23.3 116.7 23.7 115.7 23.7C114.7 23.7 113.9 23.3 113.3 22.5C112.7 21.7 112.4 20.6 112.4 19.2V16H112Z" fill="#6377EE"/>
    
    <!-- r -->
    <path d="M136 37C133.2 37 131 36.1 129.4 34.3C127.8 32.5 127 30 127 26.8V9H133V26.8C133 28.2 133.3 29.3 133.9 30.1C134.5 30.9 135.3 31.3 136.3 31.3C137.3 31.3 138.1 30.9 138.7 30.1C139.3 29.3 139.6 28.2 139.6 26.8V9H145.5V26.8C145.5 30 144.7 32.5 143.1 34.3C141.5 36.1 139.3 37 136.5 37H136Z" fill="#6377EE"/>
    
    <!-- a -->
    <path d="M157 37C154.2 37 152 36.1 150.4 34.3C148.8 32.5 148 30 148 26.8V19.2C148 16 148.8 13.5 150.4 11.7C152 9.9 154.2 9 157 9H158C160.8 9 163 9.9 164.6 11.7C166.2 13.5 167 16 167 19.2V26.8C167 30 166.2 32.5 164.6 34.3C163 36.1 160.8 37 158 37H157Z" fill="#6377EE"/>
    <path d="M157 31.3C158 31.3 158.8 30.9 159.4 30.1C160 29.3 160.3 28.2 160.3 26.8V19.2C160.3 17.8 160 16.7 159.4 15.9C158.8 15.1 158 14.7 157 14.7C156 14.7 155.2 15.1 154.6 15.9C154 16.7 153.7 17.8 153.7 19.2V26.8C153.7 28.2 154 29.3 154.6 30.1C155.2 30.9 156 31.3 157 31.3Z" fill="#6377EE"/>
    
    <!-- Leads -->
    <path d="M180 37H174V9H180V37Z" fill="#6377EE"/>
    
    <path d="M192 37C189.2 37 187 36.1 185.4 34.3C183.8 32.5 183 30 183 26.8V19.2C183 16 183.8 13.5 185.4 11.7C187 9.9 189.2 9 192 9H193C195.8 9 198 9.9 199.6 11.7C201.2 13.5 202 16 202 19.2V22H189V26.8C189 28.2 189.3 29.3 189.9 30.1C190.5 30.9 191.3 31.3 192.3 31.3C193.3 31.3 194.1 30.9 194.7 30.1C195.3 29.3 195.6 28.2 195.6 26.8V24H201.5V26.8C201.5 30 200.7 32.5 199.1 34.3C197.5 36.1 195.3 37 192.5 37H192Z" fill="#6377EE"/>
    <path d="M189 16H196V19.2C196 20.6 195.7 21.7 195.1 22.5C194.5 23.3 193.7 23.7 192.7 23.7C191.7 23.7 190.9 23.3 190.3 22.5C189.7 21.7 189.4 20.6 189.4 19.2V16H189Z" fill="#6377EE"/>
    
    <path d="M213 37C210.2 37 208 36.1 206.4 34.3C204.8 32.5 204 30 204 26.8V19.2C204 16 204.8 13.5 206.4 11.7C208 9.9 210.2 9 213 9H214C216.8 9 219 9.9 220.6 11.7C222.2 13.5 223 16 223 19.2V26.8C223 30 222.2 32.5 220.6 34.3C219 36.1 216.8 37 214 37H213Z" fill="#6377EE"/>
    <path d="M213 31.3C214 31.3 214.8 30.9 215.4 30.1C216 29.3 216.3 28.2 216.3 26.8V19.2C216.3 17.8 216 16.7 215.4 15.9C214.8 15.1 214 14.7 213 14.7C212 14.7 211.2 15.1 210.6 15.9C210 16.7 209.7 17.8 209.7 19.2V26.8C209.7 28.2 210 29.3 210.6 30.1C211.2 30.9 212 31.3 213 31.3Z" fill="#6377EE"/>
    
    <path d="M234 37C231.2 37 229 36.1 227.4 34.3C225.8 32.5 225 30 225 26.8V19.2C225 16 225.8 13.5 227.4 11.7C229 9.9 231.2 9 234 9H235C237.8 9 240 9.9 241.6 11.7C243.2 13.5 244 16 244 19.2V26.8C244 30 243.2 32.5 241.6 34.3C240 36.1 237.8 37 235 37H234Z" fill="#6377EE"/>
    <path d="M234 31.3C235 31.3 235.8 30.9 236.4 30.1C237 29.3 237.3 28.2 237.3 26.8V19.2C237.3 17.8 237 16.7 236.4 15.9C235.8 15.1 235 14.7 234 14.7C233 14.7 232.2 15.1 231.6 15.9C231 16.7 230.7 17.8 230.7 19.2V26.8C230.7 28.2 231 29.3 231.6 30.1C232.2 30.9 233 31.3 234 31.3Z" fill="#6377EE"/>
  </g>
</svg>