<?xml version="1.0" encoding="UTF-8" standalone="no"?>
<svg width="1200" height="630" viewBox="0 0 1200 630" fill="none" xmlns="http://www.w3.org/2000/svg">
  <defs>
    <linearGradient id="gradientPurple" x1="0%" y1="0%" x2="100%" y2="100%">
      <stop offset="0%" stop-color="#6377EE" />
      <stop offset="100%" stop-color="#5163D6" />
    </linearGradient>
    <linearGradient id="gradientBlue" x1="0%" y1="0%" x2="100%" y2="100%">
      <stop offset="0%" stop-color="#6377EE" />
      <stop offset="100%" stop-color="#5163D6" />
    </linearGradient>
    <linearGradient id="gradientTeal" x1="0%" y1="0%" x2="100%" y2="0%">
      <stop offset="0%" stop-color="#00DFD8" />
      <stop offset="100%" stop-color="#00BCB6" />
    </linearGradient>
    <filter id="shadow" x="-20%" y="-20%" width="140%" height="140%">
      <feDropShadow dx="0" dy="3" stdDeviation="5" flood-color="#6377EE" flood-opacity="0.2"/>
    </filter>
  </defs>
  
  <!-- Background -->
  <rect width="1200" height="630" fill="#F5F7FF"/>
  
  <!-- Decorative Background Elements -->
  <circle cx="100" cy="100" r="80" fill="#EEF1FF"/>
  <circle cx="1100" cy="530" r="100" fill="#EEF1FF"/>
  <circle cx="950" cy="150" r="60" fill="#EEF1FF"/>
  
  <!-- Logo and Brand -->
  <g transform="translate(120, 315)">
    <!-- Circle Logo -->
    <circle cx="60" cy="0" r="60" fill="#EAEEFF"/>
    <circle cx="60" cy="0" r="48" stroke="#6377EE" stroke-width="6"/>
    <circle cx="60" cy="0" r="32" stroke="#6377EE" stroke-width="6"/>
    <circle cx="60" cy="0" r="16" fill="#6377EE"/>
    
    <!-- Company Name as Path -->
    <path d="M140 20 L140 20 M171 20C165.4 20 160.6 18 156.6 14C152.6 10 150.6 4.6 150.6 -2C150.6 -8.6 152.6 -14 156.6 -18C160.6 -22 165.4 -24 171 -24C176.6 -24 181.4 -22 185.4 -18C189.4 -14 191.4 -8.6 191.4 -2C191.4 4.6 189.4 10 185.4 14C181.4 18 176.6 20 171 20ZM171 12C173.8 12 176 10.8 177.6 8.4C179.2 6 180 2.4 180 -2C180 -6.4 179.2 -10 177.6 -12.4C176 -14.8 173.8 -16 171 -16C168.2 -16 166 -14.8 164.4 -12.4C162.8 -10 162 -6.4 162 -2C162 2.4 162.8 6 164.4 8.4C166 10.8 168.2 12 171 12Z" fill="#6377EE"/>
    <path d="M214.8 20C210.4 20 206.8 18.6 204 15.8C201.2 13 199.8 9.2 199.8 4.4V-20H210V3.4C210 5.8 210.6 7.6 211.8 9C213 10.4 214.6 11 216.6 11C218.6 11 220.2 10.4 221.4 9C222.6 7.6 223.2 5.8 223.2 3.4V-20H233.4V4.4C233.4 9.2 232 13 229.2 15.8C226.4 18.6 222.8 20 218.4 20H214.8Z" fill="#6377EE"/>
    <path d="M258.6 20C253.8 20 249.8 18.6 246.6 15.8C243.4 13 241.8 9.2 241.8 4.4V-20H252V3.4C252 5.8 252.6 7.6 253.8 9C255 10.4 256.6 11 258.6 11C260.6 11 262.2 10.4 263.4 9C264.6 7.6 265.2 5.8 265.2 3.4V-20H275.4V4.4C275.4 9.2 274 13 271.2 15.8C268.4 18.6 264.8 20 260.4 20H258.6Z" fill="#6377EE"/>
    <path d="M295.8 20L282.6 -20H293.4L301.8 9L310.2 -20H321L307.8 20H295.8Z" fill="#6377EE"/>
    <path d="M345.6 20C340.8 20 336.8 18.6 333.6 15.8C330.4 13 328.8 9.2 328.8 4.4V-20H339V3.4C339 5.8 339.6 7.6 340.8 9C342 10.4 343.6 11 345.6 11C347.6 11 349.2 10.4 350.4 9C351.6 7.6 352.2 5.8 352.2 3.4V-20H362.4V4.4C362.4 9.2 361 13 358.2 15.8C355.4 18.6 351.8 20 347.4 20H345.6Z" fill="#6377EE"/>
    <path d="M388.2 20L375 -20H385.8L394.2 9L402.6 -20H413.4L400.2 20H388.2Z" fill="#6377EE"/>
  </g>
  
  <!-- Tagline -->
  <path d="M400 410 L400 410 M420 410C418.4 410 417 409.6 415.8 408.8C414.6 408 413.8 406.8 413.4 405.2L410.6 395.6H389.4L386.6 405.2C386.2 406.8 385.4 408 384.2 408.8C383 409.6 381.6 410 380 410H379L395 370H405L421 410H420ZM392.6 388H407.4L400 366.4L392.6 388Z" fill="#333333"/>
    <path d="M432.2 410C430.6 410 429.2 409.4 428 408.2C426.8 407 426.2 405.6 426.2 404C426.2 402.4 426.8 401 428 399.8C429.2 398.6 430.6 398 432.2 398C433.8 398 435.2 398.6 436.4 399.8C437.6 401 438.2 402.4 438.2 404C438.2 405.6 437.6 407 436.4 408.2C435.2 409.4 433.8 410 432.2 410Z" fill="#333333"/>
    <path d="M470.2 410C466.6 410 463.4 409.2 460.6 407.6C457.8 406 455.6 403.8 454 401C452.4 398.2 451.6 395 451.6 391.4V370H459.6V391.4C459.6 394.6 460.6 397.2 462.6 399.2C464.6 401.2 467.2 402.2 470.4 402.2C473.6 402.2 476.2 401.2 478.2 399.2C480.2 397.2 481.2 394.6 481.2 391.4V370H489.2V391.4C489.2 395 488.4 398.2 486.8 401C485.2 403.8 483 406 480.2 407.6C477.4 409.2 474.2 410 470.6 410H470.2Z" fill="#333333"/>
    <path d="M514.8 410C511.2 410 508 409.2 505.2 407.6C502.4 406 500.2 403.8 498.6 401C497 398.2 496.2 395 496.2 391.4V370H504.2V391.4C504.2 394.6 505.2 397.2 507.2 399.2C509.2 401.2 511.8 402.2 515 402.2C518.2 402.2 520.8 401.2 522.8 399.2C524.8 397.2 525.8 394.6 525.8 391.4V370H533.8V391.4C533.8 395 533 398.2 531.4 401C529.8 403.8 527.6 406 524.8 407.6C522 409.2 518.8 410 515.2 410H514.8Z" fill="#333333"/>
    <path d="M559.4 410C555.8 410 552.6 409.2 549.8 407.6C547 406 544.8 403.8 543.2 401C541.6 398.2 540.8 395 540.8 391.4V370H548.8V391.4C548.8 394.6 549.8 397.2 551.8 399.2C553.8 401.2 556.4 402.2 559.6 402.2C562.8 402.2 565.4 401.2 567.4 399.2C569.4 397.2 570.4 394.6 570.4 391.4V370H578.4V391.4C578.4 395 577.6 398.2 576 401C574.4 403.8 572.2 406 569.4 407.6C566.6 409.2 563.4 410 559.8 410H559.4Z" fill="#333333"/>
    <path d="M603.8 410C600.2 410 597 409.2 594.2 407.6C591.4 406 589.2 403.8 587.6 401C586 398.2 585.2 395 585.2 391.4V370H593.2V391.4C593.2 394.6 594.2 397.2 596.2 399.2C598.2 401.2 600.8 402.2 604 402.2C607.2 402.2 609.8 401.2 611.8 399.2C613.8 397.2 614.8 394.6 614.8 391.4V370H622.8V391.4C622.8 395 622 398.2 620.4 401C618.8 403.8 616.6 406 613.8 407.6C611 409.2 607.8 410 604.2 410H603.8Z" fill="#333333"/>
    <path d="M648.4 410C644.8 410 641.6 409.2 638.8 407.6C636 406 633.8 403.8 632.2 401C630.6 398.2 629.8 395 629.8 391.4V370H637.8V391.4C637.8 394.6 638.8 397.2 640.8 399.2C642.8 401.2 645.4 402.2 648.6 402.2C651.8 402.2 654.4 401.2 656.4 399.2C658.4 397.2 659.4 394.6 659.4 391.4V370H667.4V391.4C667.4 395 666.6 398.2 665 401C663.4 403.8 661.2 406 658.4 407.6C655.6 409.2 652.4 410 648.8 410H648.4Z" fill="#333333"/>
    <path d="M692.8 410C689.2 410 686 409.2 683.2 407.6C680.4 406 678.2 403.8 676.6 401C675 398.2 674.2 395 674.2 391.4V370H682.2V391.4C682.2 394.6 683.2 397.2 685.2 399.2C687.2 401.2 689.8 402.2 693 402.2C696.2 402.2 698.8 401.2 700.8 399.2C702.8 397.2 703.8 394.6 703.8 391.4V370H711.8V391.4C711.8 395 711 398.2 709.4 401C707.8 403.8 705.6 406 702.8 407.6C700 409.2 696.8 410 693.2 410H692.8Z" fill="#333333"/>
    <path d="M737.4 410C733.8 410 730.6 409.2 727.8 407.6C725 406 722.8 403.8 721.2 401C719.6 398.2 718.8 395 718.8 391.4V370H726.8V391.4C726.8 394.6 727.8 397.2 729.8 399.2C731.8 401.2 734.4 402.2 737.6 402.2C740.8 402.2 743.4 401.2 745.4 399.2C747.4 397.2 748.4 394.6 748.4 391.4V370H756.4V391.4C756.4 395 755.6 398.2 754 401C752.4 403.8 750.2 406 747.4 407.6C744.6 409.2 741.4 410 737.8 410H737.4Z" fill="#333333"/>
    <path d="M781.8 410C778.2 410 775 409.2 772.2 407.6C769.4 406 767.2 403.8 765.6 401C764 398.2 763.2 395 763.2 391.4V370H771.2V391.4C771.2 394.6 772.2 397.2 774.2 399.2C776.2 401.2 778.8 402.2 782 402.2C785.2 402.2 787.8 401.2 789.8 399.2C791.8 397.2 792.8 394.6 792.8 391.4V370H800.8V391.4C800.8 395 800 398.2 798.4 401C796.8 403.8 794.6 406 791.8 407.6C789 409.2 785.8 410 782.2 410H781.8Z" fill="#333333"/>
  
  <!-- Data Visualization Elements -->
  <g filter="url(#shadow)" transform="translate(700, 280)">
    <!-- Dashboard Element -->
    <rect width="360" height="200" rx="20" fill="url(#gradientBlue)"/>
    
    <!-- Chart Elements -->
    <rect x="30" y="60" width="20" height="100" rx="4" fill="url(#gradientTeal)"/>
    <rect x="70" y="40" width="20" height="120" rx="4" fill="url(#gradientTeal)"/>
    <rect x="110" y="80" width="20" height="80" rx="4" fill="url(#gradientTeal)"/>
    <rect x="150" y="20" width="20" height="140" rx="4" fill="url(#gradientTeal)"/>
    <rect x="190" y="50" width="20" height="110" rx="4" fill="url(#gradientTeal)"/>
    
    <!-- Line Chart -->
    <path d="M240 140 L270 80 L300 120 L330 60" stroke="url(#gradientTeal)" stroke-width="4" stroke-linecap="round"/>
    <circle cx="240" cy="140" r="6" fill="white"/>
    <circle cx="270" cy="80" r="6" fill="white"/>
    <circle cx="300" cy="120" r="6" fill="white"/>
    <circle cx="330" cy="60" r="6" fill="white"/>
  </g>
  
  <!-- Floating Data Points -->
  <circle cx="200" cy="200" r="30" fill="url(#gradientTeal)" filter="url(#shadow)"/>
  <circle cx="300" cy="500" r="25" fill="url(#gradientTeal)" filter="url(#shadow)"/>
  <circle cx="900" cy="400" r="28" fill="url(#gradientTeal)" filter="url(#shadow)"/>
  
  <!-- Connecting Lines -->
  <path d="M200 200 L300 500" stroke="#00DFD8" stroke-width="3" stroke-dasharray="8 8"/>
  <path d="M300 500 L700 380" stroke="#00DFD8" stroke-width="3" stroke-dasharray="8 8"/>
  <path d="M900 400 L700 380" stroke="#00DFD8" stroke-width="3" stroke-dasharray="8 8"/>
  
  <!-- Year Founded -->
  <g filter="url(#shadow)" transform="translate(120, 500)">
    <rect width="150" height="40" rx="20" fill="url(#gradientBlue)"/>
    <path d="M45 27 L45 27 M53.5 27C52.5 27 51.7 26.7 51.1 26.1C50.5 25.5 50.2 24.7 50.2 23.7V17.3H52.2V23.7C52.2 24.1 52.3 24.5 52.6 24.8C52.9 25.1 53.2 25.2 53.6 25.2C54 25.2 54.3 25.1 54.6 24.8C54.9 24.5 55 24.1 55 23.7V17.3H57V23.7C57 24.7 56.7 25.5 56.1 26.1C55.5 26.7 54.7 27 53.7 27H53.5Z" fill="white"/>
    <path d="M59.1 27C58.7 27 58.4 26.9 58.1 26.6C57.8 26.3 57.7 26 57.7 25.6V17.3H59.7V25.6C59.7 25.8 59.8 25.9 59.9 26C60 26.1 60.1 26.2 60.3 26.2H60.5V27H59.1Z" fill="white"/>
    <path d="M67.5 27C66.5 27 65.7 26.7 65.1 26.1C64.5 25.5 64.2 24.7 64.2 23.7V20.6C64.2 19.6 64.5 18.8 65.1 18.2C65.7 17.6 66.5 17.3 67.5 17.3H67.7C68.7 17.3 69.5 17.6 70.1 18.2C70.7 18.8 71 19.6 71 20.6V23.7C71 24.7 70.7 25.5 70.1 26.1C69.5 26.7 68.7 27 67.7 27H67.5ZM67.5 25.2C67.9 25.2 68.2 25.1 68.5 24.8C68.8 24.5 68.9 24.1 68.9 23.7V20.6C68.9 20.2 68.8 19.8 68.5 19.5C68.2 19.2 67.9 19.1 67.5 19.1C67.1 19.1 66.8 19.2 66.5 19.5C66.2 19.8 66.1 20.2 66.1 20.6V23.7C66.1 24.1 66.2 24.5 66.5 24.8C66.8 25.1 67.1 25.2 67.5 25.2Z" fill="white"/>
    <path d="M78.5 27C77.5 27 76.7 26.7 76.1 26.1C75.5 25.5 75.2 24.7 75.2 23.7V20.6C75.2 19.6 75.5 18.8 76.1 18.2C76.7 17.6 77.5 17.3 78.5 17.3H78.7C79.7 17.3 80.5 17.6 81.1 18.2C81.7 18.8 82 19.6 82 20.6V21.5H80V20.6C80 20.2 79.9 19.8 79.6 19.5C79.3 19.2 79 19.1 78.6 19.1C78.2 19.1 77.9 19.2 77.6 19.5C77.3 19.8 77.2 20.2 77.2 20.6V23.7C77.2 24.1 77.3 24.5 77.6 24.8C77.9 25.1 78.2 25.2 78.6 25.2C79 25.2 79.3 25.1 79.6 24.8C79.9 24.5 80 24.1 80 23.7V22.8H82V23.7C82 24.7 81.7 25.5 81.1 26.1C80.5 26.7 79.7 27 78.7 27H78.5Z" fill="white"/>
    <path d="M90.1 27L86.3 17.3H88.5L91.1 24.3L93.7 17.3H95.9L92.1 27H90.1Z" fill="white"/>
    <path d="M103.5 27C102.5 27 101.7 26.7 101.1 26.1C100.5 25.5 100.2 24.7 100.2 23.7V20.6C100.2 19.6 100.5 18.8 101.1 18.2C101.7 17.6 102.5 17.3 103.5 17.3H103.7C104.7 17.3 105.5 17.6 106.1 18.2C106.7 18.8 107 19.6 107 20.6V23.7C107 24.7 106.7 25.5 106.1 26.1C105.5 26.7 104.7 27 103.7 27H103.5ZM103.5 25.2C103.9 25.2 104.2 25.1 104.5 24.8C104.8 24.5 104.9 24.1 104.9 23.7V20.6C104.9 20.2 104.8 19.8 104.5 19.5C104.2 19.2 103.9 19.1 103.5 19.1C103.1 19.1 102.8 19.2 102.5 19.5C102.2 19.8 102.1 20.2 102.1 20.6V23.7C102.1 24.1 102.2 24.5 102.5 24.8C102.8 25.1 103.1 25.2 103.5 25.2Z" fill="white"/>
    <path d="M109.1 27V17.3H111.1V25.2H115.1V27H109.1Z" fill="white"/>
    <path d="M122.5 27C121.5 27 120.7 26.7 120.1 26.1C119.5 25.5 119.2 24.7 119.2 23.7V20.6C119.2 19.6 119.5 18.8 120.1 18.2C120.7 17.6 121.5 17.3 122.5 17.3H122.7C123.7 17.3 124.5 17.6 125.1 18.2C125.7 18.8 126 19.6 126 20.6V23.7C126 24.7 125.7 25.5 125.1 26.1C124.5 26.7 123.7 27 122.7 27H122.5ZM122.5 25.2C122.9 25.2 123.2 25.1 123.5 24.8C123.8 24.5 123.9 24.1 123.9 23.7V20.6C123.9 20.2 123.8 19.8 123.5 19.5C123.2 19.2 122.9 19.1 122.5 19.1C122.1 19.1 121.8 19.2 121.5 19.5C121.2 19.8 121.1 20.2 121.1 20.6V23.7C121.1 24.1 121.2 24.5 121.5 24.8C121.8 25.1 122.1 25.2 122.5 25.2Z" fill="white"/>
  </g>
</svg>