<?xml version="1.0" encoding="UTF-8" standalone="no"?>
<svg width="1200" height="630" viewBox="0 0 1200 630" fill="none" xmlns="http://www.w3.org/2000/svg">
  <defs>
    <linearGradient id="gradientPurple" x1="0%" y1="0%" x2="100%" y2="100%">
      <stop offset="0%" stop-color="#6377EE" />
      <stop offset="100%" stop-color="#5163D6" />
    </linearGradient>
    <linearGradient id="gradientBlue" x1="0%" y1="0%" x2="100%" y2="100%">
      <stop offset="0%" stop-color="#0C54E8" />
      <stop offset="100%" stop-color="#0A42B7" />
    </linearGradient>
    <linearGradient id="gradientTeal" x1="0%" y1="0%" x2="100%" y2="0%">
      <stop offset="0%" stop-color="#00DFD8" />
      <stop offset="100%" stop-color="#00BCB6" />
    </linearGradient>
    <filter id="shadow" x="-20%" y="-20%" width="140%" height="140%">
      <feDropShadow dx="0" dy="3" stdDeviation="5" flood-color="#6377EE" flood-opacity="0.2"/>
    </filter>
  </defs>
  
  <!-- Background -->
  <rect width="1200" height="630" fill="#F5F7FF"/>
  
  <!-- Decorative Background Elements -->
  <circle cx="100" cy="100" r="80" fill="#EEF1FF"/>
  <circle cx="1100" cy="530" r="100" fill="#EEF1FF"/>
  <circle cx="950" cy="150" r="60" fill="#EEF1FF"/>
  
  <!-- Logo and Brand -->
  <g transform="translate(120, 315)">
    <!-- Circle Logo -->
    <circle cx="60" cy="0" r="60" fill="#EAEEFF"/>
    <circle cx="60" cy="0" r="48" stroke="#0C54E8" stroke-width="6"/>
    <circle cx="60" cy="0" r="32" stroke="#0C54E8" stroke-width="6"/>
    <circle cx="60" cy="0" r="16" fill="#0C54E8"/>
    
    <!-- Company Name -->
    <text x="140" y="20" font-family="Arial, sans-serif" font-weight="bold" font-size="72" fill="#0C54E8">Opera Leads</text>
  </g>
  
  <!-- Tagline -->
  <text x="600" y="410" text-anchor="middle" font-family="Arial, sans-serif" font-size="32" fill="#333333">Leading B2B Data Solutions Provider</text>
  
  <!-- Data Visualization Elements -->
  <g filter="url(#shadow)" transform="translate(700, 280)">
    <!-- Dashboard Element -->
    <rect width="360" height="200" rx="20" fill="url(#gradientBlue)"/>
    
    <!-- Chart Elements -->
    <rect x="30" y="60" width="20" height="100" rx="4" fill="url(#gradientTeal)"/>
    <rect x="70" y="40" width="20" height="120" rx="4" fill="url(#gradientTeal)"/>
    <rect x="110" y="80" width="20" height="80" rx="4" fill="url(#gradientTeal)"/>
    <rect x="150" y="20" width="20" height="140" rx="4" fill="url(#gradientTeal)"/>
    <rect x="190" y="50" width="20" height="110" rx="4" fill="url(#gradientTeal)"/>
    
    <!-- Line Chart -->
    <path d="M240 140 L270 80 L300 120 L330 60" stroke="url(#gradientTeal)" stroke-width="4" stroke-linecap="round"/>
    <circle cx="240" cy="140" r="6" fill="white"/>
    <circle cx="270" cy="80" r="6" fill="white"/>
    <circle cx="300" cy="120" r="6" fill="white"/>
    <circle cx="330" cy="60" r="6" fill="white"/>
  </g>
  
  <!-- Floating Data Points -->
  <circle cx="200" cy="200" r="30" fill="url(#gradientTeal)" filter="url(#shadow)"/>
  <circle cx="300" cy="500" r="25" fill="url(#gradientTeal)" filter="url(#shadow)"/>
  <circle cx="900" cy="400" r="28" fill="url(#gradientTeal)" filter="url(#shadow)"/>
  
  <!-- Connecting Lines -->
  <path d="M200 200 L300 500" stroke="#00DFD8" stroke-width="3" stroke-dasharray="8 8"/>
  <path d="M300 500 L700 380" stroke="#00DFD8" stroke-width="3" stroke-dasharray="8 8"/>
  <path d="M900 400 L700 380" stroke="#00DFD8" stroke-width="3" stroke-dasharray="8 8"/>
  
  <!-- Year Founded -->
  <g filter="url(#shadow)" transform="translate(120, 500)">
    <rect width="150" height="40" rx="20" fill="url(#gradientBlue)"/>
    <text x="75" y="27" text-anchor="middle" font-family="Arial, sans-serif" font-weight="bold" font-size="18" fill="white">SINCE 2019</text>
  </g>
</svg>