<?xml version="1.0" encoding="UTF-8" standalone="no"?>
<svg width="240" height="60" viewBox="0 0 240 60" fill="none" xmlns="http://www.w3.org/2000/svg">
  <!-- Modern Opera Lead Logo with Clear Typography -->
  
  <!-- Gradient Definitions -->
  <defs>
    <linearGradient id="primaryGradient" x1="0%" y1="0%" x2="100%" y2="100%">
      <stop offset="0%" stop-color="#6377EE" />
      <stop offset="100%" stop-color="#5163D6" />
    </linearGradient>
    <linearGradient id="accentGradient" x1="0%" y1="0%" x2="100%" y2="100%">
      <stop offset="0%" stop-color="#00DFD8" />
      <stop offset="100%" stop-color="#00BCB6" />
    </linearGradient>
    <linearGradient id="blendGradient" x1="0%" y1="0%" x2="100%" y2="100%">
      <stop offset="0%" stop-color="#6377EE" />
      <stop offset="100%" stop-color="#00DFD8" />
    </linearGradient>
    
    <!-- Filter for subtle shadow -->
    <filter id="shadow" x="-10%" y="-10%" width="120%" height="120%">
      <feDropShadow dx="0" dy="1" stdDeviation="1" flood-opacity="0.2" />
    </filter>
  </defs>
  
  <!-- Logo Symbol - Modern and Clean -->
  <g id="logo-symbol">
    <!-- Background Shape -->
    <rect x="5" y="10" width="40" height="40" rx="8" fill="#EAEEFF" />
    
    <!-- Stylized "O" -->
    <path d="M25 15C18.373 15 13 20.373 13 27C13 33.627 18.373 39 25 39C31.627 39 37 33.627 37 27C37 20.373 31.627 15 25 15ZM25 35C20.582 35 17 31.418 17 27C17 22.582 20.582 19 25 19C29.418 19 33 22.582 33 27C33 31.418 29.418 35 25 35Z" fill="url(#primaryGradient)" filter="url(#shadow)" />
    
    <!-- Data Flow Line -->
    <path d="M17 27C17 27 21 21 25 27C29 33 33 27 33 27" stroke="url(#accentGradient)" stroke-width="2" stroke-linecap="round" />
    
    <!-- Connection Points -->
    <circle cx="17" cy="27" r="1.5" fill="url(#accentGradient)" />
    <circle cx="25" cy="27" r="1.5" fill="url(#blendGradient)" />
    <circle cx="33" cy="27" r="1.5" fill="url(#primaryGradient)" />
  </g>
  
  <!-- Opera Lead Text - Clean, Modern Typography -->
  <g id="logo-text" filter="url(#shadow)">
    <!-- OPERA -->
    <path d="M60 40C55.6 40 52.2 38.3 49.8 34.9C47.4 31.5 46.2 27 46.2 21.5C46.2 16 47.4 11.5 49.8 8.1C52.2 4.7 55.6 3 60 3C64.4 3 67.8 4.7 70.2 8.1C72.6 11.5 73.8 16 73.8 21.5C73.8 27 72.6 31.5 70.2 34.9C67.8 38.3 64.4 40 60 40ZM60 34C62.2 34 63.9 32.7 65.1 30.1C66.3 27.5 66.9 24.8 66.9 21.5C66.9 18.2 66.3 15.5 65.1 12.9C63.9 10.3 62.2 9 60 9C57.8 9 56.1 10.3 54.9 12.9C53.7 15.5 53.1 18.2 53.1 21.5C53.1 24.8 53.7 27.5 54.9 30.1C56.1 32.7 57.8 34 60 34Z" fill="url(#primaryGradient)"/>
    
    <path d="M85 40C81.8 40 79.3 38.8 77.5 36.4C75.7 34 74.8 30.8 74.8 26.8V4H81.7V26.8C81.7 28.8 82.1 30.3 82.9 31.3C83.7 32.3 84.8 32.8 86.2 32.8C87.6 32.8 88.7 32.3 89.5 31.3C90.3 30.3 90.7 28.8 90.7 26.8V4H97.6V26.8C97.6 30.8 96.7 34 94.9 36.4C93.1 38.8 90.6 40 87.4 40H85Z" fill="url(#primaryGradient)"/>
    
    <path d="M110 40C106.2 40 103.2 38.8 101 36.4C98.8 34 97.7 30.8 97.7 26.8V17.2C97.7 13.2 98.8 10 101 7.6C103.2 5.2 106.2 4 110 4H112C115.8 4 118.8 5.2 121 7.6C123.2 10 124.3 13.2 124.3 17.2V21H104.6V26.8C104.6 28.8 105 30.3 105.8 31.3C106.6 32.3 107.7 32.8 109.1 32.8C110.5 32.8 111.6 32.3 112.4 31.3C113.2 30.3 113.6 28.8 113.6 26.8V23H124.3V26.8C124.3 30.8 123.2 34 121 36.4C118.8 38.8 115.8 40 112 40H110Z" fill="url(#primaryGradient)"/>
    
    <path d="M137 40C133.2 40 130.2 38.8 128 36.4C125.8 34 124.7 30.8 124.7 26.8V4H131.6V26.8C131.6 28.8 132 30.3 132.8 31.3C133.6 32.3 134.7 32.8 136.1 32.8C137.5 32.8 138.6 32.3 139.4 31.3C140.2 30.3 140.6 28.8 140.6 26.8V4H147.5V26.8C147.5 30.8 146.4 34 144.2 36.4C142 38.8 139 40 135.2 40H137Z" fill="url(#primaryGradient)"/>
    
    <path d="M160 40C156.2 40 153.2 38.8 151 36.4C148.8 34 147.7 30.8 147.7 26.8V17.2C147.7 13.2 148.8 10 151 7.6C153.2 5.2 156.2 4 160 4H162C165.8 4 168.8 5.2 171 7.6C173.2 10 174.3 13.2 174.3 17.2V26.8C174.3 30.8 173.2 34 171 36.4C168.8 38.8 165.8 40 162 40H160Z" fill="url(#primaryGradient)"/>
    <path d="M160 32.8C161.4 32.8 162.5 32.3 163.3 31.3C164.1 30.3 164.5 28.8 164.5 26.8V17.2C164.5 15.2 164.1 13.7 163.3 12.7C162.5 11.7 161.4 11.2 160 11.2C158.6 11.2 157.5 11.7 156.7 12.7C155.9 13.7 155.5 15.2 155.5 17.2V26.8C155.5 28.8 155.9 30.3 156.7 31.3C157.5 32.3 158.6 32.8 160 32.8Z" fill="url(#primaryGradient)"/>
    
    <!-- LEAD -->
    <path d="M185 40H178V4H185V40Z" fill="url(#blendGradient)"/>
    
    <path d="M198 40C194.2 40 191.2 38.8 189 36.4C186.8 34 185.7 30.8 185.7 26.8V17.2C185.7 13.2 186.8 10 189 7.6C191.2 5.2 194.2 4 198 4H200C203.8 4 206.8 5.2 209 7.6C211.2 10 212.3 13.2 212.3 17.2V21H192.6V26.8C192.6 28.8 193 30.3 193.8 31.3C194.6 32.3 195.7 32.8 197.1 32.8C198.5 32.8 199.6 32.3 200.4 31.3C201.2 30.3 201.6 28.8 201.6 26.8V23H212.3V26.8C212.3 30.8 211.2 34 209 36.4C206.8 38.8 203.8 40 200 40H198Z" fill="url(#blendGradient)"/>
    
    <path d="M225 40C221.2 40 218.2 38.8 216 36.4C213.8 34 212.7 30.8 212.7 26.8V17.2C212.7 13.2 213.8 10 216 7.6C218.2 5.2 221.2 4 225 4H227C230.8 4 233.8 5.2 236 7.6C238.2 10 239.3 13.2 239.3 17.2V26.8C239.3 30.8 238.2 34 236 36.4C233.8 38.8 230.8 40 227 40H225Z" fill="url(#blendGradient)"/>
    <path d="M225 32.8C226.4 32.8 227.5 32.3 228.3 31.3C229.1 30.3 229.5 28.8 229.5 26.8V17.2C229.5 15.2 229.1 13.7 228.3 12.7C227.5 11.7 226.4 11.2 225 11.2C223.6 11.2 222.5 11.7 221.7 12.7C220.9 13.7 220.5 15.2 220.5 17.2V26.8C220.5 28.8 220.9 30.3 221.7 31.3C222.5 32.3 223.6 32.8 225 32.8Z" fill="url(#blendGradient)"/>
    
    <path d="M252 40C248.2 40 245.2 38.8 243 36.4C240.8 34 239.7 30.8 239.7 26.8V17.2C239.7 13.2 240.8 10 243 7.6C245.2 5.2 248.2 4 252 4H254C257.8 4 260.8 5.2 263 7.6C265.2 10 266.3 13.2 266.3 17.2V26.8C266.3 30.8 265.2 34 263 36.4C260.8 38.8 257.8 40 254 40H252Z" fill="url(#blendGradient)"/>
    <path d="M252 32.8C253.4 32.8 254.5 32.3 255.3 31.3C256.1 30.3 256.5 28.8 256.5 26.8V17.2C256.5 15.2 256.1 13.7 255.3 12.7C254.5 11.7 253.4 11.2 252 11.2C250.6 11.2 249.5 11.7 248.7 12.7C247.9 13.7 247.5 15.2 247.5 17.2V26.8C247.5 28.8 247.9 30.3 248.7 31.3C249.5 32.3 250.6 32.8 252 32.8Z" fill="url(#blendGradient)"/>
  </g>
</svg>