<?xml version="1.0" encoding="UTF-8" standalone="no"?>
<svg width="240" height="60" viewBox="0 0 240 60" fill="none" xmlns="http://www.w3.org/2000/svg">
  <!-- Opera Lead Logo with Prominent Text - Alternative Version -->
  
  <!-- Gradient Definitions -->
  <defs>
    <linearGradient id="primaryGradient" x1="0%" y1="0%" x2="100%" y2="100%">
      <stop offset="0%" stop-color="#6377EE" />
      <stop offset="100%" stop-color="#5163D6" />
    </linearGradient>
    <linearGradient id="accentGradient" x1="0%" y1="0%" x2="100%" y2="100%">
      <stop offset="0%" stop-color="#00DFD8" />
      <stop offset="100%" stop-color="#00BCB6" />
    </linearGradient>
    <linearGradient id="blendGradient" x1="0%" y1="0%" x2="100%" y2="100%">
      <stop offset="0%" stop-color="#6377EE" />
      <stop offset="100%" stop-color="#00DFD8" />
    </linearGradient>
  </defs>
  
  <!-- Opera Lead Text - Path-based for better SVG compatibility -->
  <g id="logo-text">
    <!-- OPERA -->
    <!-- O -->
    <path d="M75 38C71.2 38 68.2 36.5 66 33.5C63.8 30.5 62.7 26.5 62.7 21.5C62.7 16.5 63.8 12.5 66 9.5C68.2 6.5 71.2 5 75 5C78.8 5 81.8 6.5 84 9.5C86.2 12.5 87.3 16.5 87.3 21.5C87.3 26.5 86.2 30.5 84 33.5C81.8 36.5 78.8 38 75 38ZM75 33C77.2 33 78.9 31.7 80.1 29.1C81.3 26.5 81.9 24.2 81.9 21.5C81.9 18.8 81.3 16.5 80.1 13.9C78.9 11.3 77.2 10 75 10C72.8 10 71.1 11.3 69.9 13.9C68.7 16.5 68.1 18.8 68.1 21.5C68.1 24.2 68.7 26.5 69.9 29.1C71.1 31.7 72.8 33 75 33Z" fill="url(#primaryGradient)"/>
    
    <!-- P -->
    <path d="M98 38H92V5H99C102.8 5 105.8 6.2 108 8.6C110.2 11 111.3 14.2 111.3 18.2V19.8C111.3 23.8 110.2 27 108 29.4C105.8 31.8 102.8 33 99 33H98V38ZM98 28C99.4 28 100.5 27.5 101.3 26.5C102.1 25.5 102.5 24 102.5 22V16C102.5 14 102.1 12.5 101.3 11.5C100.5 10.5 99.4 10 98 10H97V28H98Z" fill="url(#primaryGradient)"/>
    
    <!-- E -->
    <path d="M123 38H112V5H123C126.8 5 129.8 6.2 132 8.6C134.2 11 135.3 14.2 135.3 18.2V24.8C135.3 28.8 134.2 32 132 34.4C129.8 36.8 126.8 38 123 38ZM123 33C124.4 33 125.5 32.5 126.3 31.5C127.1 30.5 127.5 29 127.5 27V16C127.5 14 127.1 12.5 126.3 11.5C125.5 10.5 124.4 10 123 10H118V33H123Z" fill="url(#primaryGradient)"/>
    
    <!-- R -->
    <path d="M147 38H141V5H148C151.8 5 154.8 6.2 157 8.6C159.2 11 160.3 14.2 160.3 18.2V19.8C160.3 23.8 159.2 27 157 29.4C154.8 31.8 151.8 33 148 33H147V38ZM147 28C148.4 28 149.5 27.5 150.3 26.5C151.1 25.5 151.5 24 151.5 22V16C151.5 14 151.1 12.5 150.3 11.5C149.5 10.5 148.4 10 147 10H146V28H147Z" fill="url(#primaryGradient)"/>
    
    <!-- A -->
    <path d="M172 38H166L159 5H165L170 30L175 5H181L174 38H172Z" fill="url(#primaryGradient)"/>
    
    <!-- LEAD -->
    <!-- L -->
    <path d="M195 38H189V5H195V38Z" fill="url(#blendGradient)"/>
    
    <!-- E -->
    <path d="M208 38H197V5H208C211.8 5 214.8 6.2 217 8.6C219.2 11 220.3 14.2 220.3 18.2V24.8C220.3 28.8 219.2 32 217 34.4C214.8 36.8 211.8 38 208 38ZM208 33C209.4 33 210.5 32.5 211.3 31.5C212.1 30.5 212.5 29 212.5 27V16C212.5 14 212.1 12.5 211.3 11.5C210.5 10.5 209.4 10 208 10H203V33H208Z" fill="url(#blendGradient)"/>
    
    <!-- A -->
    <path d="M232 38H226L219 5H225L230 30L235 5H241L234 38H232Z" fill="url(#blendGradient)"/>
    
    <!-- D -->
    <path d="M253 38H242V5H253C256.8 5 259.8 6.2 262 8.6C264.2 11 265.3 14.2 265.3 18.2V24.8C265.3 28.8 264.2 32 262 34.4C259.8 36.8 256.8 38 253 38ZM253 33C254.4 33 255.5 32.5 256.3 31.5C257.1 30.5 257.5 29 257.5 27V16C257.5 14 257.1 12.5 256.3 11.5C255.5 10.5 254.4 10 253 10H248V33H253Z" fill="url(#blendGradient)"/>
  </g>
  
  <!-- Logo Symbol - Integrated with Text -->
  <g id="logo-symbol">
    <!-- Main Circle -->
    <circle cx="30" cy="21.5" r="15" fill="#EAEEFF" />
    
    <!-- Stylized "O" for Opera -->
    <path d="M30 10C22.268 10 16 16.268 16 24C16 31.732 22.268 38 30 38C37.732 38 44 31.732 44 24C44 16.268 37.732 10 30 10ZM30 34C24.477 34 20 29.523 20 24C20 18.477 24.477 14 30 14C35.523 14 40 18.477 40 24C40 29.523 35.523 34 30 34Z" fill="url(#primaryGradient)" />
    
    <!-- Data Visualization Element -->
    <path d="M22 24C22 24 26 18 30 24C34 30 38 24 38 24" stroke="url(#accentGradient)" stroke-width="2" stroke-linecap="round" />
  </g>
  
  <!-- Connecting Element -->
  <path d="M45 21.5H62.7" stroke="url(#accentGradient)" stroke-width="1.5" stroke-dasharray="2 2" />
  <path d="M87.3 21.5H92" stroke="url(#accentGradient)" stroke-width="1.5" stroke-dasharray="2 2" />
  <path d="M111.3 21.5H112" stroke="url(#accentGradient)" stroke-width="1.5" stroke-dasharray="2 2" />
  <path d="M135.3 21.5H141" stroke="url(#accentGradient)" stroke-width="1.5" stroke-dasharray="2 2" />
  <path d="M160.3 21.5H166" stroke="url(#accentGradient)" stroke-width="1.5" stroke-dasharray="2 2" />
  <path d="M181 21.5H189" stroke="url(#accentGradient)" stroke-width="1.5" stroke-dasharray="2 2" />
  <path d="M195 21.5H197" stroke="url(#accentGradient)" stroke-width="1.5" stroke-dasharray="2 2" />
  <path d="M220.3 21.5H225" stroke="url(#accentGradient)" stroke-width="1.5" stroke-dasharray="2 2" />
  <path d="M241 21.5H242" stroke="url(#accentGradient)" stroke-width="1.5" stroke-dasharray="2 2" />
</svg>